<?xml version="1.0" encoding="utf-8"?>
<!-- Generator: Adobe Illustrator 17.1.0, SVG Export Plug-In . SVG Version: 6.00 Build 0)  -->
<!DOCTYPE svg PUBLIC "-//W3C//DTD SVG 1.1//EN" "http://www.w3.org/Graphics/SVG/1.1/DTD/svg11.dtd">
<svg version="1.1" id="Layer_1" xmlns="http://www.w3.org/2000/svg" xmlns:xlink="http://www.w3.org/1999/xlink" x="0px" y="0px"
	 viewBox="0 0 200 60" enable-background="new 0 0 200 60" xml:space="preserve">
<g>
	<path fill="#6C6C68" d="M50.4,42.3h3.7c7.1,0,7.2-4.5,7.2-4.7c0-4.8-3.7-6-4.3-6.1c-0.8,0.6-6.6,5.4-6.6,10.3
		C50.4,42,50.4,42.1,50.4,42.3 M61.8,37.6c0,0.1-0.1,5.2-7.7,5.2h-4.2l0-0.2c0-0.3,0-0.5,0-0.8c0-5.5,6.6-10.6,6.9-10.8l0.1-0.1
		l0.1,0C57,31,61.8,31.9,61.8,37.6"/>
	<rect x="42.7" y="42.3" fill="#6C6C68" width="7.5" height="0.5"/>
	
		<rect x="53.5" y="42.5" transform="matrix(0.897 -0.4419 0.4419 0.897 -13.5762 28.2066)" fill="#6C6C68" width="0.5" height="1.5"/>
	<rect x="59.9" y="40.6" fill="#6C6C68" width="0.5" height="3"/>
	<path fill="#6C6C68" d="M42.7,30.5V31c0,0-0.1,0-0.2,0.1c-0.7,0.8-0.7,4.4-0.7,5.8l-0.5,0c0-0.5-0.2-5.1,0.8-6.1
		C42.2,30.6,42.4,30.5,42.7,30.5"/>
	<path fill="#6C6C68" d="M56.9,28.4c0.7-0.2,4.3-1.3,4.3-6.1c0-0.2-0.1-4.7-7.2-4.7h-3.7c0,0.2,0,0.3,0,0.5
		C50.4,22.9,56.1,27.7,56.9,28.4 M61.8,22.3c0,5.7-4.8,6.6-4.9,6.7l-0.1,0l-0.1-0.1c-0.3-0.2-6.9-5.3-6.9-10.8c0-0.3,0-0.5,0-0.8
		l0-0.2h4.2C61.7,17,61.8,22.2,61.8,22.3"/>
	<rect x="42.7" y="17" fill="#6C6C68" width="7.5" height="0.5"/>
	
		<rect x="53" y="16.4" transform="matrix(0.4415 -0.8972 0.8972 0.4415 15.1004 57.5121)" fill="#6C6C68" width="1.5" height="0.5"/>
	<rect x="59.9" y="16.2" fill="#6C6C68" width="0.5" height="3"/>
	<path fill="#6C6C68" d="M42.7,28.9v0.5c-0.2,0-0.4-0.1-0.6-0.3c-1-1.1-0.8-5.6-0.8-6.1l0.5,0c-0.1,1.3-0.1,5,0.7,5.8
		C42.5,28.8,42.6,28.9,42.7,28.9"/>
	<path fill="#6C6C68" d="M86.6,28.7v2.5c0,4.2-3.7,11.2-3.8,11.5l-0.5-0.2c0-0.1,3.8-7.2,3.8-11.2v-2.5c0-4.1-3.7-11.2-3.8-11.2
		l0.5-0.2C82.9,17.5,86.6,24.5,86.6,28.7"/>
	<rect x="56.6" y="28.7" fill="#6C6C68" width="0.5" height="2.5"/>
	<path fill="#6C6C68" d="M102.6,34.5c-0.7,2.1-2,2-2.1,2l0.1-0.5c0,0,1,0.1,1.5-1.6L102.6,34.5z"/>
	<path fill="#6C6C68" d="M198.6,31.3c0,0.2,0,0.3,0,0.3v0c0,0.7-0.2,1.3-0.6,1.7c-0.4,0.4-1,0.6-1.7,0.6l-5.9,0
		c-11,0-18.8,1.7-18.9,1.7c-4.1,1.7-13,4.1-13.1,4.1c-4.1,0.9-10.9,0-11.1,0c-5.1,0-10.9,0.5-11,0.5c-2.9,0-11.6,2.5-11.7,2.6
		c-8,2.6-24.2,3.8-24.4,3.8c-12.1,0-13.6-3.8-13.6-4l0.5-0.2c0,0,1.5,3.6,13.1,3.6c0.1,0,16.3-1.2,24.2-3.8
		c0.4-0.1,8.9-2.6,11.8-2.6c0,0,5.9-0.5,11-0.5c0.1,0,6.9,0.9,11,0c0.1,0,9-2.4,13.1-4.1c0.1,0,8-1.7,19.1-1.7l5.9,0
		c0.6,0,1-0.2,1.3-0.5c0.3-0.3,0.5-0.8,0.5-1.4c0,0,0.1-0.8-0.4-1.4c-0.4-0.5-1.2-0.8-2.3-0.8l-8.1,0.4l-9.6,0.3
		c0,0-5.3,0.4-9.8,0.1c-4.8-0.3-11.3,0-17.2,0.7c0,0-5.2,1.2-10.6,0.7c-2.8-0.3-4.7-0.2-8.8-0.1c-2.2,0.1-4.9,0.2-8.6,0.2
		c-1.7,0-3.9,0-6.4-0.1c-5-0.2-10.6-0.4-13.5,0.3c0,1-0.2,4.9-2.4,6.8c-1.1,0.9-2.6,1.2-4.4,0.9l0.1-0.5c1.6,0.3,2.9,0.1,3.9-0.8
		c2.3-2,2.2-6.5,2.2-6.6l0-0.2l0.2,0c2.9-0.7,8.7-0.5,13.8-0.3c2.4,0.1,4.7,0.2,6.3,0.1c3.8-0.1,6.5-0.2,8.6-0.2
		c4.1-0.1,6-0.2,8.8,0.1c5.3,0.5,10.4-0.7,10.4-0.7c6-0.7,12.5-1,17.3-0.7c4.5,0.3,9.7-0.1,9.7-0.1l9.6-0.3l8.1-0.4
		c1.3,0,2.2,0.3,2.7,1C198.6,30.3,198.6,30.9,198.6,31.3"/>
	<path fill="#6C6C68" d="M101.4,26c0,0.8-0.1,1.9-0.4,3.2v1.6c1,3.9,0,5.5,0,5.6l-0.1,0.1h-0.1c-1.2,0-3.7,0.2-5.8,0.8
		c-5.6,1.6-8.4,6.3-8.5,6.4l-0.1,0.1h-0.1c-3.3,0-6-1.6-7.6-3c-3.3-2.8-9.3,0.3-9.4,0.4c-3.6,2.1-7.5,2.6-7.5,2.6
		C60.5,44,59,44,57.6,43.9c-1.3,0-2.6-0.1-3.5,0.2c-1.2,0.4-3.1,0.5-3.1,0.6l-8.2,0l0-0.2c-1.8-10.3-7.6-10-7.7-10l-5.9,0V34h5.9
		c0,0,6.2-0.4,8.1,10.2H51c0,0,1.9-0.1,3-0.5c1-0.3,2.3-0.3,3.6-0.3c1.4,0,2.8,0.1,4-0.2c0.1,0,3.8-0.5,7.4-2.6
		c0.3-0.1,6.4-3.3,10-0.3c1.5,1.3,4,2.8,7.1,2.9c0.5-0.8,3.4-4.9,8.7-6.5c2.1-0.6,4.5-0.8,5.8-0.8c0.2-0.4,0.7-2-0.1-5.1l0-0.1
		l0-1.7c0.8-3.1,0.3-4.7,0.1-5.1c-1.2,0-3.7-0.2-5.8-0.8c-5.3-1.5-8.2-5.7-8.7-6.5c-3.1,0-5.6,1.6-7.1,2.9c-3.5,3-9.7-0.2-9.9-0.3
		c-3.5-2-7.3-2.6-7.3-2.6c-1.2-0.3-2.6-0.3-4-0.3c-1.4,0-2.7,0.1-3.6-0.3c-1.1-0.4-3-0.5-3-0.5l-7.7,0c-1.9,10.1-8.1,10.2-8.1,10.2
		h-5.3v-0.5h5.3c0,0,1.5,0,3.1-1.2c1.5-1.1,3.6-3.6,4.5-8.7l0-0.2H51c0.1,0,2,0.1,3.2,0.6c0.9,0.3,2.1,0.3,3.5,0.2
		c1.4,0,2.9-0.1,4.1,0.3c0,0,3.8,0.5,7.5,2.6c0.1,0,6.1,3.1,9.4,0.4c1.6-1.4,4.2-3,7.6-3h0.1l0.1,0.1c0,0,2.9,4.7,8.5,6.3
		c2.1,0.6,4.6,0.8,5.8,0.8h0.1l0.1,0.1C100.9,23.6,101.4,24.3,101.4,26"/>
	<path fill="#6C6C68" d="M2.5,27.9c0,1.9,0.5,6.6,5.5,8.8c0.1,0,1.2,0.7,5.5,0.7c0.9,0,1.6,0.1,2.8,0.2c0.7,0.1,1.6,0.2,2.8,0.3
		c1.8,0.2,5.2-0.3,6.9-1.6l0,0c0,0,4.5-2.2,4.9-5.2l0.2-1.3c0.4-3-3.3-6.2-3.4-6.3l0,0c-1.3-1.7-4.5-3-6.3-3.4
		c-3.6-0.7-4.7-0.9-5.3-0.9c-0.2,0-0.3,0-0.5-0.1c-1.1-0.2-1.9-0.3-2.5-0.4c-1.2-0.2-1.8-0.3-2.7-0.3c-6.6,0.6-7.7,7.5-7.7,7.6
		l-0.2,1.3C2.5,27.4,2.5,27.6,2.5,27.9 M31.7,29.4L31.7,29.4c0,0.2,0,0.4,0,0.5l-0.2,1.3c-0.4,3.2-4.7,5.4-5.2,5.6
		c-1.9,1.4-5.5,1.9-7.3,1.7c-1.2-0.1-2.1-0.2-2.8-0.3c-1.2-0.1-1.8-0.2-2.7-0.2c-4.5,0-5.7-0.8-5.7-0.8C2.4,34.8,2,29.5,2,27.9
		c0-0.4,0-0.6,0-0.6L2.2,26c0-0.1,1.2-7.4,8.2-8c1-0.1,1.6,0,2.8,0.3c0.6,0.1,1.4,0.3,2.5,0.4c0.2,0,0.3,0,0.5,0.1
		c0.6,0.1,1.7,0.2,5.4,0.9c1.8,0.4,5.1,1.6,6.6,3.5C28.4,23.5,31.7,26.4,31.7,29.4"/>
	<path fill="#6C6C68" d="M114.6,53.3C114.6,53.3,114.6,53.3,114.6,53.3c0,0.3-0.3,0.4-0.5,0.6c-0.1,0.1-0.2,0.1-0.4,0.2
		c0,0.1,0.1,0.1,0.1,0.2c-0.1,0.5-0.7,0.6-1.2,0.7c-0.3,0-0.6,0.1-0.7,0.2c-0.2,0.1-0.3,0.2-0.4,0.3c-0.2,0.1-0.3,0.2-0.5,0.3
		c-1.2,1.1-8.4-0.3-9.3-1.3c-0.6-0.6-1.8-0.7-1.8-0.7l-16.7,0c-6.5,0-10.9-0.8-10.9-0.8c-4.1-0.6-5.6-0.8-7.3-0.9
		c-0.3,0-0.7-0.1-1-0.1c-6.6-0.6-11.5-1.1-15.3-1.7c-5.6-0.8-5.9-5.8-5.9-5.8l0.5,0c0,0.2,0.3,4.6,5.5,5.4c3.8,0.5,8.7,1,15.2,1.7
		c0.3,0,0.7,0.1,1,0.1c1.6,0.2,3.2,0.3,7.3,0.9c0,0,4.3,0.8,10.8,0.8l16.7,0c0.1,0,1.4,0.1,2.2,0.8c1.1,1.1,7.9,2,8.6,1.3
		c0.2-0.2,0.4-0.3,0.6-0.4c0.1-0.1,0.3-0.1,0.4-0.2c0.2-0.2,0.6-0.2,0.9-0.3c0.3,0,0.6-0.1,0.7-0.2c-0.2-0.2-0.1-0.3-0.1-0.4
		c0.2-0.3,0.4-0.4,0.7-0.5c0.1,0,0.2-0.1,0.2-0.1c-0.1-0.1-0.3-0.1-0.5-0.2c-0.2,0-0.5-0.1-0.6-0.3c-0.1-0.1-0.1-0.3-0.1-0.5
		c-0.5-0.3-1.2-0.3-1.9-0.3c-0.3,0-0.6,0-0.9,0c-0.2,0-0.4,0-0.6-0.1c-1-0.1-1.8-0.2-2.8-0.6c-1.4-0.6-1.7-0.9-1.7-1.2
		c0-0.4,0.6-0.5,1.5-0.6c0.6-0.1,1.7-0.3,1.7-0.6c0,0,0,0,0-0.1c-0.4-0.4-2.5-0.4-3.7-0.4l-0.4,0c-0.8,0-1.5,0.2-2.2,0.5
		c-0.8,0.3-1.6,0.5-2.6,0.5c-0.3,0-0.6,0-0.9,0c-1.7,0-3.7,0-6.9-0.7c-2.2-0.5-5.4-0.9-8.7-1.3c-1.1-0.1-2.2-0.3-3.3-0.4l-7.6,0
		c-0.1,0-4.9-0.6-8.7-1.1c-2.9-0.4-7.5-0.7-11.9-0.7h-0.2l-0.2-0.7l0.5-0.2l0.1,0.3c4.4,0,8.9,0.3,11.8,0.7c3.9,0.6,8.7,1.1,8.7,1.1
		l7.6,0c1.1,0.1,2.2,0.3,3.3,0.4c3.3,0.4,6.5,0.8,8.7,1.3c3.1,0.6,5.1,0.7,6.8,0.7c0.3,0,0.6,0,0.9,0c0.9,0,1.7-0.2,2.4-0.5
		c0.8-0.2,1.5-0.5,2.4-0.5l0.4,0c1.9,0,3.5,0,4,0.6c0.1,0.1,0.2,0.3,0.2,0.5c0,0.8-1.2,0.9-2.2,1.1c-0.3,0-0.8,0.1-1,0.2
		c0.1,0.1,0.4,0.3,1.3,0.7c0.9,0.4,1.7,0.4,2.6,0.5c0.2,0,0.4,0,0.7,0.1c0.3,0,0.5,0,0.8,0c0.8,0,1.7,0,2.3,0.4l0.2,0.1l0,0.2
		c0,0.2,0,0.3,0,0.3c0,0,0.2,0,0.3,0.1c0.2,0,0.6,0.1,0.8,0.3C114.6,53,114.6,53.1,114.6,53.3"/>
	<path fill="#6C6C68" d="M114.6,6.6c0,0.1-0.1,0.2-0.2,0.4c-0.2,0.3-0.6,0.3-0.8,0.3c-0.1,0-0.3,0-0.3,0.1c0,0,0,0.1,0,0.3l0,0.2
		l-0.2,0.1c-0.6,0.4-1.5,0.4-2.3,0.4c-0.3,0-0.6,0-0.8,0c-0.2,0-0.4,0-0.7,0.1c-0.9,0.1-1.7,0.2-2.6,0.5c-0.8,0.3-1.2,0.6-1.3,0.7
		c0.2,0.1,0.7,0.1,1,0.2c1,0.2,2.2,0.3,2.2,1.1v0c0,0.2-0.1,0.3-0.2,0.5c-0.5,0.5-2.1,0.6-4,0.6l-0.4,0c-0.8,0-1.6-0.2-2.4-0.5
		c-0.8-0.2-1.6-0.5-2.4-0.5c-0.3,0-0.6,0-0.9,0c-1.7,0-3.7,0-6.8,0.7c-2.2,0.5-5.4,0.9-8.7,1.3c-1.1,0.1-2.2,0.3-3.3,0.4l-7.6,0
		c0,0-4.8,0.6-8.7,1.1c-2.9,0.4-7.4,0.7-11.8,0.7l-0.1,0.3l-0.5-0.2l0.2-0.7h0.2c4.4,0,9-0.3,11.9-0.7c3.9-0.6,8.7-1.1,8.7-1.1h7.6
		c1.1-0.1,2.2-0.3,3.3-0.4c3.3-0.4,6.5-0.8,8.7-1.3c3.2-0.6,5.1-0.7,6.9-0.7c0.3,0,0.6,0,0.9,0c1,0,1.8,0.2,2.6,0.5
		c0.8,0.2,1.5,0.5,2.2,0.5l0.4,0c1.2,0,3.3,0,3.7-0.4c0,0,0-0.1,0-0.1c0-0.3-1.1-0.5-1.7-0.6c-0.9-0.1-1.4-0.2-1.5-0.6
		c0-0.3,0.2-0.6,1.7-1.2c1-0.4,1.8-0.5,2.8-0.6c0.2,0,0.4,0,0.6-0.1c0.3,0,0.6,0,0.9,0c0.7,0,1.4,0,1.9-0.3c0-0.2,0-0.3,0.1-0.5
		c0.2-0.2,0.4-0.2,0.6-0.3c0.2,0,0.4,0,0.5-0.2c-0.1,0-0.1-0.1-0.2-0.1c-0.2-0.1-0.5-0.3-0.7-0.5c-0.1-0.1-0.1-0.2,0.1-0.4
		c-0.1-0.1-0.4-0.1-0.7-0.2c-0.3-0.1-0.7-0.1-0.9-0.3c-0.1-0.1-0.2-0.2-0.4-0.2c-0.2-0.1-0.4-0.2-0.6-0.4c-0.7-0.7-7.5,0.2-8.6,1.3
		c-0.8,0.8-2.1,0.8-2.2,0.8l-16.7,0c-6.5,0-10.8,0.8-10.8,0.8c-4.1,0.6-5.7,0.8-7.3,0.9c-0.3,0-0.6,0.1-1,0.1
		C57.5,9,52.6,9.5,48.8,10.1c-5.2,0.7-5.5,5.2-5.5,5.4l-0.5,0c0,0,0.3-5,5.9-5.8c3.8-0.5,8.7-1,15.3-1.7c0.3,0,0.7-0.1,1-0.1
		c1.6-0.2,3.2-0.3,7.3-0.9c0,0,4.4-0.8,10.9-0.8l16.7,0c0,0,1.2,0,1.8-0.7c1-1,8.1-2.4,9.3-1.3c0.2,0.1,0.3,0.2,0.5,0.3
		c0.1,0.1,0.3,0.2,0.4,0.3c0.1,0.1,0.4,0.1,0.7,0.2c0.5,0.1,1.1,0.2,1.2,0.7c0,0.1,0,0.2-0.1,0.2c0.1,0.1,0.2,0.2,0.4,0.2
		C114.4,6.2,114.6,6.3,114.6,6.6C114.6,6.6,114.6,6.6,114.6,6.6"/>
	<path fill="#6C6C68" d="M102.7,25.3l-0.5,0.2c-0.6-1.7-1.6-1.6-1.6-1.6l-0.1-0.5C100.6,23.4,102,23.2,102.7,25.3"/>
	<path fill="#6C6C68" d="M198.8,26c0,0.3-0.1,0.9-0.5,1.5c-0.5,0.7-1.4,1-2.7,1l-8.2-0.2l-9.6-0.1c-0.1,0-5.3-0.2-9.7,0.2
		c-4.9,0.4-11.3,0.3-17.3-0.2c-0.1,0-5.2-1.1-10.5-0.4c-2.8,0.4-4.7,0.3-8.8,0.3c-2.2,0-4.9,0-8.6,0c-1.6,0-3.9,0.2-6.3,0.3
		c-5.1,0.3-10.9,0.7-13.8,0.1l-0.2,0v-0.2c0-0.1,0-4.6-2.4-6.5c-1-0.8-2.3-1-3.9-0.7l-0.1-0.5c1.8-0.4,3.2-0.2,4.4,0.8
		c2.3,1.8,2.6,5.7,2.6,6.7c2.9,0.6,8.5,0.2,13.5-0.1c2.4-0.2,4.7-0.3,6.3-0.3c3.8,0,6.5,0,8.6,0c4.1,0,5.9,0,8.8-0.3
		c5.4-0.7,10.6,0.4,10.6,0.4c5.9,0.6,12.4,0.6,17.2,0.2c4.5-0.4,9.7-0.2,9.8-0.2l9.6,0.1l8.2,0.2c1.1,0,1.8-0.3,2.3-0.9
		c0.5-0.6,0.4-1.4,0.4-1.4c0-0.7-0.2-1.2-0.5-1.5c-0.3-0.3-0.8-0.4-1.3-0.4c-1.3,0-5.9,0.2-5.9,0.2c-11.1,0.3-19-1.2-19.1-1.2
		c-4.2-1.6-13.1-3.8-13.2-3.8c-4.1-0.7-10.9,0.3-10.9,0.3c-5.2,0.1-11-0.2-11.1-0.2c-2.9,0.1-11.5-2.2-11.8-2.3
		c-8.1-2.3-24.2-3.1-24.4-3.1C88.3,14.1,87,17.4,87,17.4l-0.5-0.2c0-0.1,1.3-3.7,13.4-4c0.2,0,16.4,0.8,24.5,3.1
		c0.1,0,8.9,2.3,11.7,2.3c0.1,0,5.9,0.4,11,0.2c0.2,0,6.9-1,11.1-0.3c0.1,0,9.1,2.2,13.3,3.8c0,0,7.9,1.5,18.9,1.2
		c0,0,4.7-0.1,5.9-0.2c0.7,0,1.3,0.2,1.7,0.6c0.4,0.4,0.7,1,0.7,1.8C198.8,25.7,198.8,25.8,198.8,26"/>
</g>
</svg>
