<?xml version="1.0" encoding="UTF-8" standalone="no"?>
<svg
   xmlns:dc="http://purl.org/dc/elements/1.1/"
   xmlns:cc="http://creativecommons.org/ns#"
   xmlns:rdf="http://www.w3.org/1999/02/22-rdf-syntax-ns#"
   xmlns:svg="http://www.w3.org/2000/svg"
   xmlns="http://www.w3.org/2000/svg"
   viewBox="0 0 1600 599.72931"
   height="599.72931"
   width="1600"
   xml:space="preserve"
   id="svg2"
   version="1.1"><metadata
     id="metadata8"><rdf:RDF><cc:Work
         rdf:about=""><dc:format>image/svg+xml</dc:format><dc:type
           rdf:resource="http://purl.org/dc/dcmitype/StillImage" /></cc:Work></rdf:RDF></metadata><defs
     id="defs6"><clipPath
       id="clipPath18"
       clipPathUnits="userSpaceOnUse"><path
         id="path16"
         d="M 0,449.797 H 1200 V 0 H 0 Z" /></clipPath></defs><g
     transform="matrix(1.3333333,0,0,-1.3333333,0,599.72933)"
     id="g10"><g
       id="g12"><g
         clip-path="url(#clipPath18)"
         id="g14"><g
           transform="translate(1178.8544,41.2701)"
           id="g20"><path
             id="path22"
             style="fill:#855b35;fill-opacity:1;fill-rule:nonzero;stroke:#855b35;stroke-width:1.40999997;stroke-linecap:butt;stroke-linejoin:miter;stroke-miterlimit:10;stroke-dasharray:none;stroke-opacity:1"
             d="M 0,0 C -1.435,0 -2.967,0.235 -4.588,0.715 L -35.695,9.93 c -57.774,17.106 -101.142,20.27 -101.574,20.297 -23.877,-2.578 -74.384,-1.366 -74.886,-1.356 -23.034,1.9 -56.824,16.589 -58.254,17.213 -26.518,7.838 -57.923,14.22 -58.236,14.284 -15.078,4.466 -64.552,4.604 -65.054,4.604 -46.111,-0.95 -132.462,17.656 -133.327,17.842 -63.469,18.782 -65.115,40.93 -65.158,41.864 l -0.027,0.709 0.55,0.448 c 0.333,0.267 34.052,26.849 83.785,12.118 0.317,-0.112 4.645,-1.665 10.004,6.162 3.962,7.294 5.782,14.001 5.813,14.124 l 0.296,1.109 1.142,-0.059 c 16.439,-0.858 46.348,-10.889 72.738,-19.741 12.496,-4.188 24.299,-8.153 32.908,-10.511 19.8,-5.432 34.022,-9.103 45.454,-12.059 21.673,-5.597 31.563,-8.153 46.057,-14.064 26.971,-10.992 55.335,-12.555 55.624,-12.571 32.483,-5.458 66.695,-14.118 91.66,-23.184 22.906,-8.313 50.63,-14.523 50.907,-14.582 L -44.638,39.553 -1.441,28.967 C 5.149,27.025 9.401,23.909 11.28,19.705 13.579,14.545 11.344,9.738 11.247,9.535 9.433,3.351 5.427,0 0,0 m -137.323,33.038 c 0.683,-0.026 44.334,-3.206 102.428,-20.403 L -3.789,3.42 c 6.19,-1.835 10.491,0.63 12.411,7.118 0.096,0.24 1.852,4.093 0.064,8.052 -1.525,3.403 -5.186,5.975 -10.863,7.656 l -43.149,10.57 -50.603,13.014 c -0.24,0.053 -28.135,6.306 -51.216,14.678 -24.816,9.012 -58.842,17.618 -91.005,23.034 -0.17,0 -28.993,1.601 -56.378,12.762 -14.321,5.838 -24.155,8.377 -45.7,13.942 -11.44,2.956 -25.672,6.633 -45.495,12.07 -8.683,2.379 -20.523,6.354 -33.056,10.553 -25.619,8.596 -54.586,18.312 -70.868,19.529 -1.521,-5.032 -8.398,-25.142 -23.156,-31.577 -7.337,-3.195 -15.453,-2.47 -24.117,2.151 l 1.328,2.486 c 7.862,-4.194 15.151,-4.887 21.663,-2.043 3.999,1.739 7.403,4.663 10.244,8.03 -2.95,-1.024 -4.994,-0.208 -5.141,-0.144 -44.387,13.141 -75.59,-7.667 -80.413,-11.178 0.902,-3.735 8.086,-22.346 62.913,-38.577 0.76,-0.165 86.922,-18.765 132.597,-17.746 2.089,-0.006 50.419,-0.149 65.762,-4.696 0.198,-0.031 31.723,-6.445 58.529,-14.379 0.507,-0.214 34.954,-15.185 57.433,-17.037 0.427,-0.005 50.741,-1.227 74.682,1.35" /></g><g
           transform="translate(1114.9606,250.1008)"
           id="g24"><path
             id="path26"
             style="fill:#855b35;fill-opacity:1;fill-rule:nonzero;stroke:#855b35;stroke-width:1.40999997;stroke-linecap:butt;stroke-linejoin:miter;stroke-miterlimit:10;stroke-dasharray:none;stroke-opacity:1"
             d="m 0,0 c -5.234,0 -10.784,2.972 -13.718,5.73 -4.322,4.061 -22.559,5.139 -29.218,5.208 -35.85,-0.811 -81.229,-6.984 -81.677,-7.048 -5.688,-0.475 -11.248,-0.71 -16.595,-0.71 -35.14,0 -52.374,9.919 -53.089,10.346 -19.88,12.437 -41.02,14.545 -41.23,14.571 -10.682,0.87 -21.666,1.318 -32.631,1.318 -15.785,0 -26.056,-0.944 -26.16,-0.949 -35.568,-3.634 -101.438,-3.677 -102.1,-3.677 -46.342,0 -77.681,0.625 -82.331,0.721 -11.536,-11.178 -27.249,-12.395 -33.526,-12.395 -2.927,0 -5.819,0.24 -8.364,0.694 -22.276,3.969 -32.598,16.508 -37.333,26.32 -7.585,15.714 -5.912,34.377 -0.344,44.697 13.971,25.872 47.636,28.674 61.466,28.674 4.556,0 9.161,-0.283 13.315,-0.801 12.691,-1.601 37.944,-3.25 49.746,-3.687 23.613,-0.875 53.402,-5.208 77.337,-8.686 8.447,-1.233 16.418,-2.391 23.101,-3.244 15.151,-1.948 28.892,-4.439 39.934,-6.446 8.332,-1.504 14.911,-2.705 19.446,-3.19 25.646,-2.759 40.175,-5.683 50.139,-10.09 14.5,-6.419 23.164,-8.425 30.149,-9.807 14.241,-2.817 39.622,-5.821 39.873,-5.848 21.502,-4.001 76.961,-15.681 77.521,-15.793 18.2,-3.426 37.643,-4.146 50.747,-4.146 8.847,0 14.668,0.331 14.727,0.331 10.644,0.005 18.461,0.379 24.735,0.672 6.488,0.309 11.611,0.55 16.701,0.246 L 31,43 c 5.757,0 13.221,7.139 13.291,7.214 1.969,1.957 3.729,2.923 5.367,2.923 2.199,0 3.383,-1.728 3.735,-2.747 l 0.102,-0.283 -0.027,-0.294 C 52.305,35.754 44.013,29.18 43.661,28.908 39.787,25.019 35.615,23.525 27.302,20.793 23.221,19.454 17.591,13.211 13.067,8.201 11.487,6.446 10.02,4.829 8.788,3.591 6.402,1.206 3.442,0 0,0 m -42.957,13.766 c 2.614,-0.032 25.269,-0.437 31.17,-5.981 C -9.663,5.795 -4.77,2.817 0,2.817 c 2.673,0 4.957,0.939 6.792,2.775 1.206,1.206 2.636,2.785 4.178,4.498 4.748,5.266 10.661,11.807 15.452,13.381 8.083,2.663 11.813,3.992 15.382,7.551 0.203,0.176 7.651,6.146 8.826,18.653 -0.15,0.256 -0.465,0.64 -0.972,0.64 -0.475,0 -1.547,-0.278 -3.388,-2.113 -0.357,-0.357 -8.798,-8.404 -15.82,-8.004 -4.962,0.294 -9.999,0.054 -16.401,-0.245 -6.302,-0.304 -14.151,-0.672 -24.779,-0.672 0.027,-0.005 -5.875,-0.347 -14.812,-0.347 -13.222,0 -32.856,0.731 -51.296,4.204 -0.587,0.123 -56.014,11.787 -77.388,15.772 -0.171,0.017 -25.648,3.031 -40.006,5.87 -7.129,1.409 -15.976,3.463 -30.742,9.994 -9.681,4.284 -23.962,7.144 -49.303,9.865 -4.635,0.496 -11.256,1.702 -19.646,3.223 -11.005,2.001 -24.71,4.487 -39.783,6.419 -6.709,0.858 -14.691,2.022 -23.148,3.254 -23.872,3.468 -53.573,7.79 -77.039,8.66 -11.85,0.432 -37.224,2.097 -49.997,3.703 -4.039,0.507 -8.523,0.774 -12.96,0.774 -13.32,0 -45.732,-2.647 -58.98,-27.185 -5.229,-9.69 -6.771,-27.271 0.398,-42.125 6.381,-13.227 18.586,-21.796 35.284,-24.773 2.388,-0.427 5.109,-0.651 7.873,-0.651 6.005,0 21.14,1.168 31.963,11.994 l 0.426,0.427 0.606,-0.011 c 0.323,-0.011 32.843,-0.736 82.862,-0.736 0.662,0 66.389,0.042 101.828,3.66 0.115,0.016 10.506,0.966 26.432,0.966 11.043,0 22.1,-0.448 32.876,-1.329 0.907,-0.091 22.039,-2.203 42.453,-14.977 0.133,-0.08 17.33,-9.935 51.621,-9.935 5.272,0 10.752,0.235 16.285,0.699 0.384,0.054 45.908,6.249 81.966,7.07" /></g><g
           transform="translate(638.1165,281.5437)"
           id="g28"><path
             id="path30"
             style="fill:#855b35;fill-opacity:1;fill-rule:nonzero;stroke:#855b35;stroke-width:1.40999997;stroke-linecap:butt;stroke-linejoin:miter;stroke-miterlimit:10;stroke-dasharray:none;stroke-opacity:1"
             d="m 0,0 -2.012,1.985 c 1.294,1.312 31.355,32.601 2.081,69.662 l 2.22,1.75 C 33.126,34.351 0.339,0.341 0,0" /></g><g
           transform="translate(600.4336,294.6959)"
           id="g32"><path
             id="path34"
             style="fill:#855b35;fill-opacity:1;fill-rule:nonzero;stroke:#855b35;stroke-width:1.40999997;stroke-linecap:butt;stroke-linejoin:miter;stroke-miterlimit:10;stroke-dasharray:none;stroke-opacity:1"
             d="m 0,0 c -9.676,0 -17.554,7.875 -17.554,17.554 0,9.679 7.878,17.549 17.554,17.549 9.676,0 17.549,-7.87 17.549,-17.549 C 17.549,7.875 9.676,0 0,0 m 0,32.28 c -8.123,0 -14.729,-6.605 -14.729,-14.726 0,-8.126 6.606,-14.736 14.729,-14.736 8.118,0 14.729,6.61 14.729,14.736 C 14.729,25.675 8.118,32.28 0,32.28" /></g><g
           transform="translate(303.6667,122.0248)"
           id="g36"><path
             id="path38"
             style="fill:#855b35;fill-opacity:1;fill-rule:nonzero;stroke:none"
             d="m 0,0 -0.312,1.211 c -7.897,30.637 27.126,66.071 28.623,67.565 l 0.437,0.438 0.625,-0.032 c 0.272,-0.011 27.001,-1.617 31.082,-32.499 0.038,-0.294 0.897,-7.257 -3.409,-14.94 -3.924,-7 -13.07,-15.932 -34.361,-18.745 z M 29.853,66.311 C 25.798,62.08 -3.716,30.141 2.129,3.127 L 22.319,5.8 c 15.932,2.097 27.094,8.089 32.261,17.32 3.853,6.872 3.082,13.13 3.076,13.189 -3.441,26.027 -23.986,29.57 -27.803,30.002" /></g><g
           transform="translate(303.6667,122.0248)"
           id="g40"><path
             id="path42"
             style="fill:none;stroke:#855b35;stroke-width:1.40999997;stroke-linecap:butt;stroke-linejoin:miter;stroke-miterlimit:10;stroke-dasharray:none;stroke-opacity:1"
             d="m 0,0 -0.312,1.211 c -7.897,30.637 27.126,66.071 28.623,67.565 l 0.437,0.438 0.625,-0.032 c 0.272,-0.011 27.001,-1.617 31.082,-32.499 0.038,-0.294 0.897,-7.257 -3.409,-14.94 -3.924,-7 -13.07,-15.932 -34.361,-18.745 z M 29.853,66.311 C 25.798,62.08 -3.716,30.141 2.129,3.127 L 22.319,5.8 c 15.932,2.097 27.094,8.089 32.261,17.32 3.853,6.872 3.082,13.13 3.076,13.189 -3.441,26.027 -23.986,29.57 -27.803,30.002" /></g><g
           transform="translate(264.4714,116.8441)"
           id="g44"><path
             id="path46"
             style="fill:#855b35;fill-opacity:1;fill-rule:nonzero;stroke:none"
             d="M 0,0 -0.371,2.796 40.065,8.147 40.436,5.341 Z" /></g><g
           transform="translate(264.4714,116.8441)"
           id="g48"><path
             id="path50"
             style="fill:none;stroke:#855b35;stroke-width:1.40999997;stroke-linecap:butt;stroke-linejoin:miter;stroke-miterlimit:10;stroke-dasharray:none;stroke-opacity:1"
             d="M 0,0 -0.371,2.796 40.065,8.147 40.436,5.341 Z" /></g><g
           transform="translate(325.847,118.2794)"
           id="g52"><path
             id="path54"
             style="fill:#855b35;fill-opacity:1;fill-rule:nonzero;stroke:none"
             d="M 0,0 -4.589,6.867 -2.238,8.43 2.35,1.558 Z" /></g><g
           transform="translate(325.847,118.2794)"
           id="g56"><path
             id="path58"
             style="fill:none;stroke:#855b35;stroke-width:1.40999997;stroke-linecap:butt;stroke-linejoin:miter;stroke-miterlimit:10;stroke-dasharray:none;stroke-opacity:1"
             d="M 0,0 -4.589,6.867 -2.238,8.43 2.35,1.558 Z" /></g><g
           transform="translate(355.8704,140.9608)"
           id="g60"><path
             id="path62"
             style="fill:#855b35;fill-opacity:1;fill-rule:nonzero;stroke:none"
             d="M 0,0 2.179,-16.482 4.983,-16.108 2.801,0.374 Z" /></g><g
           transform="translate(355.8704,140.9608)"
           id="g64"><path
             id="path66"
             style="fill:none;stroke:#855b35;stroke-width:1.40999997;stroke-linecap:butt;stroke-linejoin:miter;stroke-miterlimit:10;stroke-dasharray:none;stroke-opacity:1"
             d="M 0,0 2.179,-16.482 4.983,-16.108 2.801,0.374 Z" /></g><g
           transform="translate(252.653,147.881)"
           id="g68"><path
             id="path70"
             style="fill:#855b35;fill-opacity:1;fill-rule:nonzero;stroke:none"
             d="m 0,0 c -0.504,2.759 -4.77,27.18 0.027,33.753 0.787,1.078 1.814,1.724 2.982,1.884 L 3.38,32.836 C 3.129,32.803 2.742,32.691 2.31,32.094 -1.153,27.345 1.475,7.684 2.774,0.502 Z" /></g><g
           transform="translate(252.653,147.881)"
           id="g72"><path
             id="path74"
             style="fill:none;stroke:#855b35;stroke-width:1.40999997;stroke-linecap:butt;stroke-linejoin:miter;stroke-miterlimit:10;stroke-dasharray:none;stroke-opacity:1"
             d="m 0,0 c -0.504,2.759 -4.77,27.18 0.027,33.753 0.787,1.078 1.814,1.724 2.982,1.884 L 3.38,32.836 C 3.129,32.803 2.742,32.691 2.31,32.094 -1.153,27.345 1.475,7.684 2.774,0.502 Z" /></g><g
           transform="translate(330.9982,202.0113)"
           id="g76"><path
             id="path78"
             style="fill:#855b35;fill-opacity:1;fill-rule:nonzero;stroke:none"
             d="m 0,0 -0.541,0.315 c -1.83,1.051 -44.852,26.165 -45.185,57.806 l -0.016,1.254 22.69,2.998 c 3.54,0.464 6.949,0.705 10.135,0.705 31.619,0 35.049,-23.194 35.084,-23.429 C 26.246,8.766 0.846,0.272 0.59,0.192 Z M -42.864,56.91 C -41.498,29.277 -4.666,6.093 0.312,3.089 c 3.682,1.393 22.533,9.887 19.051,36.197 -0.114,0.848 -3.206,20.969 -32.28,20.969 -3.06,0 -6.347,-0.224 -9.767,-0.677 z" /></g><g
           transform="translate(330.9982,202.0113)"
           id="g80"><path
             id="path82"
             style="fill:none;stroke:#855b35;stroke-width:1.40999997;stroke-linecap:butt;stroke-linejoin:miter;stroke-miterlimit:10;stroke-dasharray:none;stroke-opacity:1"
             d="m 0,0 -0.541,0.315 c -1.83,1.051 -44.852,26.165 -45.185,57.806 l -0.016,1.254 22.69,2.998 c 3.54,0.464 6.949,0.705 10.135,0.705 31.619,0 35.049,-23.194 35.084,-23.429 C 26.246,8.766 0.846,0.272 0.59,0.192 Z M -42.864,56.91 C -41.498,29.277 -4.666,6.093 0.312,3.089 c 3.682,1.393 22.533,9.887 19.051,36.197 -0.114,0.848 -3.206,20.969 -32.28,20.969 -3.06,0 -6.347,-0.224 -9.767,-0.677 z" /></g><g
           transform="translate(246.4342,253.4146)"
           id="g84"><path
             id="path86"
             style="fill:#855b35;fill-opacity:1;fill-rule:nonzero;stroke:none"
             d="m 0,0 -0.374,2.796 40.439,5.34 0.371,-2.801 z" /></g><g
           transform="translate(246.4342,253.4146)"
           id="g88"><path
             id="path90"
             style="fill:none;stroke:#855b35;stroke-width:1.40999997;stroke-linecap:butt;stroke-linejoin:miter;stroke-miterlimit:10;stroke-dasharray:none;stroke-opacity:1"
             d="m 0,0 -0.374,2.796 40.439,5.34 0.371,-2.801 z" /></g><g
           transform="translate(303.0586,262.9438)"
           id="g92"><path
             id="path94"
             style="fill:#855b35;fill-opacity:1;fill-rule:nonzero;stroke:none"
             d="M 0,0 2.676,-0.902 5.322,6.92 2.644,7.822 Z" /></g><g
           transform="translate(303.0586,262.9438)"
           id="g96"><path
             id="path98"
             style="fill:none;stroke:#855b35;stroke-width:1.40999997;stroke-linecap:butt;stroke-linejoin:miter;stroke-miterlimit:10;stroke-dasharray:none;stroke-opacity:1"
             d="M 0,0 2.676,-0.902 5.322,6.92 2.644,7.822 Z" /></g><g
           transform="translate(338.4124,273.14)"
           id="g100"><path
             id="path102"
             style="fill:#855b35;fill-opacity:1;fill-rule:nonzero;stroke:none"
             d="m 0,0 2.182,-16.487 2.796,0.368 -2.18,16.493 z" /></g><g
           transform="translate(338.4124,273.14)"
           id="g104"><path
             id="path106"
             style="fill:none;stroke:#855b35;stroke-width:1.40999997;stroke-linecap:butt;stroke-linejoin:miter;stroke-miterlimit:10;stroke-dasharray:none;stroke-opacity:1"
             d="m 0,0 2.182,-16.487 2.796,0.368 -2.18,16.493 z" /></g><g
           transform="translate(254.339,189.5098)"
           id="g108"><path
             id="path110"
             style="fill:#855b35;fill-opacity:1;fill-rule:nonzero;stroke:#855b35;stroke-width:1.40999997;stroke-linecap:butt;stroke-linejoin:miter;stroke-miterlimit:10;stroke-dasharray:none;stroke-opacity:1"
             d="m 0,0 c -0.99,0 -1.961,0.363 -2.836,1.067 -6.344,5.117 -8.566,29.799 -8.796,32.595 l 2.815,0.235 C -8.217,26.63 -5.645,6.957 -1.064,3.265 -0.496,2.806 -0.093,2.79 0.157,2.828 L 0.531,0.037 C 0.349,0.01 0.176,0 0,0" /></g><g
           transform="translate(481.2922,146.243)"
           id="g112"><path
             id="path114"
             style="fill:#855b35;fill-opacity:1;fill-rule:nonzero;stroke:#855b35;stroke-width:1.40999997;stroke-linecap:butt;stroke-linejoin:miter;stroke-miterlimit:10;stroke-dasharray:none;stroke-opacity:1"
             d="m 0,0 -2.644,0.987 c 0.152,0.406 15.271,41.549 12.376,63.446 l -1.814,13.75 c -2.897,21.903 -28.172,57.699 -28.429,58.062 l 2.3,1.633 c 1.057,-1.494 25.942,-36.741 28.925,-59.332 L 12.533,64.807 C 15.518,42.21 0.635,1.713 0,0" /></g><g
           transform="translate(329.7579,203.3608)"
           id="g116"><path
             id="path118"
             style="fill:#855b35;fill-opacity:1;fill-rule:nonzero;stroke:none"
             d="M 0,0 1.814,-13.75 4.612,-13.376 2.804,0.368 Z" /></g><g
           transform="translate(329.7579,203.3608)"
           id="g120"><path
             id="path122"
             style="fill:none;stroke:#855b35;stroke-width:1.40999997;stroke-linecap:butt;stroke-linejoin:miter;stroke-miterlimit:10;stroke-dasharray:none;stroke-opacity:1"
             d="M 0,0 1.814,-13.75 4.612,-13.376 2.804,0.368 Z" /></g><g
           transform="translate(153.1622,148.4307)"
           id="g124"><path
             id="path126"
             style="fill:#855b35;fill-opacity:1;fill-rule:nonzero;stroke:#855b35;stroke-width:1.40999997;stroke-linecap:butt;stroke-linejoin:miter;stroke-miterlimit:10;stroke-dasharray:none;stroke-opacity:1"
             d="m 0,0 c -11.266,0 -19.987,8.735 -21.708,21.743 -0.88,6.675 0.323,13.024 3.394,17.895 3.31,5.256 8.489,8.484 14.969,9.343 C 10.783,50.854 14.203,39.265 15.86,26.705 17.538,14.038 17.149,2.065 3.097,0.208 2.06,0.069 1.014,0 0,0 m -0.504,46.351 c -0.777,0 -1.601,-0.053 -2.47,-0.166 C -8.595,45.438 -13.08,42.658 -15.927,38.134 -18.648,33.823 -19.71,28.13 -18.912,22.111 -17.223,9.337 -8.428,1.526 2.732,3.004 13.713,4.456 14.828,13.008 13.061,26.332 11.477,38.353 8.566,46.351 -0.504,46.351" /></g><g
           transform="translate(266.859,106.7221)"
           id="g128"><path
             id="path130"
             style="fill:#855b35;fill-opacity:1;fill-rule:nonzero;stroke:none"
             d="m 0,0 -0.36,1.121 c -13.742,42.733 -32.959,49.114 -43.184,49.114 -3.18,0 -5.154,-0.661 -5.176,-0.667 l -31.973,-4.247 h 0.005 c 0.035,0 -0.835,-0.203 -2.054,-0.203 -2.372,0 -7.998,0.843 -9.036,8.697 l -0.021,0.208 0.026,0.198 c 0.016,0.08 1.246,8.083 0.329,15.041 -0.918,6.941 -4.192,14.358 -4.224,14.433 l -0.109,0.389 c -0.438,3.33 0.203,6.014 1.894,7.988 2.564,2.988 6.589,3.105 6.76,3.11 l 32.179,4.178 c 3.159,0 30.971,1.665 33.772,59.354 l 0.056,1.173 44.065,5.816 c 0.098,0.016 2.571,0.155 5.877,0.155 4.847,0 8.764,-0.294 11.639,-0.886 1.35,-0.272 2.852,-0.405 4.589,-0.405 4.255,0 9.129,0.811 14.294,1.664 5.61,0.934 11.413,1.894 16.959,1.894 2.014,0 3.839,-0.122 5.579,-0.384 0.064,-0.032 21.241,-0.187 42.271,-8.777 0.078,-0.026 12.44,-4.498 25.702,-4.498 11.172,0 19.64,3.084 25.187,9.172 6.359,6.99 19.867,19.086 38.856,21.599 l 0.792,0.107 0.505,-0.635 c 0.184,-0.235 18.864,-23.626 50.336,-28.285 4.469,-0.661 9.583,-0.997 15.193,-0.997 8.508,0 14.91,0.762 16.677,0.992 l 0.765,0.101 0.496,-0.592 c 0.278,-0.331 6.798,-8.361 4.224,-30.268 l 1.115,-8.484 c 8.179,-20.489 3.972,-29.928 3.785,-30.328 l -0.328,-0.699 -0.763,-0.096 c -6.251,-0.827 -19.763,-3.5 -30.773,-8.281 -29.223,-12.693 -41.151,-40.108 -41.271,-40.38 l -0.312,-0.742 -0.798,-0.106 c -2.382,-0.315 -4.813,-0.475 -7.229,-0.475 -15.167,0 -27.898,6.109 -35.907,11.237 -4.175,2.673 -9.156,4.033 -14.806,4.033 -17.304,0 -35.41,-12.629 -35.596,-12.757 C 121.938,24.827 101.526,19.144 101.323,19.086 94.931,16.295 87.016,15.516 79.348,14.764 72.191,14.06 65.423,13.393 60.794,11.072 54.751,8.052 44.595,5.928 44.163,5.837 Z m -43.544,53.058 c 10.898,0 31.229,-6.526 45.505,-49.958 l 41.733,5.517 c 0,0 10.124,2.124 15.838,4.978 5.098,2.556 12.115,3.249 19.544,3.981 7.441,0.731 15.14,1.488 21.313,4.167 0.39,0.123 20.297,5.672 37.953,19.112 0.813,0.576 19.072,13.301 37.261,13.301 6.195,0 11.688,-1.504 16.324,-4.47 7.694,-4.925 19.905,-10.8 34.389,-10.8 2.032,0 4.076,0.123 6.087,0.358 2.191,4.61 14.916,29.18 42.397,41.121 10.813,4.69 23.955,7.401 30.664,8.361 0.704,2.417 2.393,11.279 -4.143,27.569 l -0.085,0.342 -1.193,9.001 0.021,0.176 c 2.084,17.421 -1.846,25.536 -3.156,27.697 -2.569,-0.304 -8.558,-0.907 -16.18,-0.907 -5.752,0 -11.002,0.347 -15.604,1.025 -29.634,4.391 -48.309,24.816 -51.62,28.705 -17.698,-2.614 -30.356,-13.99 -36.372,-20.595 -6.102,-6.696 -15.276,-10.095 -27.273,-10.095 -13.774,0 -26.198,4.498 -26.724,4.69 -20.614,8.419 -41.255,8.601 -41.457,8.601 -1.804,0.256 -3.493,0.373 -5.371,0.373 -5.312,0 -10.999,-0.944 -16.495,-1.857 -5.285,-0.88 -10.268,-1.707 -14.758,-1.707 -1.929,0 -3.618,0.155 -5.152,0.464 -2.657,0.539 -6.485,0.833 -11.076,0.833 -3.196,0 -5.595,-0.144 -5.611,-0.144 l -41.634,-5.501 c -1.341,-24.416 -7.237,-41.938 -17.543,-52.108 -8.812,-8.681 -17.92,-8.798 -19.369,-8.74 L -87.048,92.36 c -0.12,-0.005 -3.02,-0.139 -4.725,-2.161 -1.099,-1.307 -1.507,-3.17 -1.23,-5.555 0.547,-1.269 3.461,-8.217 4.36,-15.019 0.89,-6.798 -0.11,-14.263 -0.31,-15.629 0.585,-4.023 2.676,-6.056 6.211,-6.056 0.896,0 1.526,0.145 1.537,0.15 l 31.72,4.194 c 0.581,0.181 2.732,0.774 5.941,0.774" /></g><g
           transform="translate(266.859,106.7221)"
           id="g132"><path
             id="path134"
             style="fill:none;stroke:#855b35;stroke-width:1.40999997;stroke-linecap:butt;stroke-linejoin:miter;stroke-miterlimit:10;stroke-dasharray:none;stroke-opacity:1"
             d="m 0,0 -0.36,1.121 c -13.742,42.733 -32.959,49.114 -43.184,49.114 -3.18,0 -5.154,-0.661 -5.176,-0.667 l -31.973,-4.247 h 0.005 c 0.035,0 -0.835,-0.203 -2.054,-0.203 -2.372,0 -7.998,0.843 -9.036,8.697 l -0.021,0.208 0.026,0.198 c 0.016,0.08 1.246,8.083 0.329,15.041 -0.918,6.941 -4.192,14.358 -4.224,14.433 l -0.109,0.389 c -0.438,3.33 0.203,6.014 1.894,7.988 2.564,2.988 6.589,3.105 6.76,3.11 l 32.179,4.178 c 3.159,0 30.971,1.665 33.772,59.354 l 0.056,1.173 44.065,5.816 c 0.098,0.016 2.571,0.155 5.877,0.155 4.847,0 8.764,-0.294 11.639,-0.886 1.35,-0.272 2.852,-0.405 4.589,-0.405 4.255,0 9.129,0.811 14.294,1.664 5.61,0.934 11.413,1.894 16.959,1.894 2.014,0 3.839,-0.122 5.579,-0.384 0.064,-0.032 21.241,-0.187 42.271,-8.777 0.078,-0.026 12.44,-4.498 25.702,-4.498 11.172,0 19.64,3.084 25.187,9.172 6.359,6.99 19.867,19.086 38.856,21.599 l 0.792,0.107 0.505,-0.635 c 0.184,-0.235 18.864,-23.626 50.336,-28.285 4.469,-0.661 9.583,-0.997 15.193,-0.997 8.508,0 14.91,0.762 16.677,0.992 l 0.765,0.101 0.496,-0.592 c 0.278,-0.331 6.798,-8.361 4.224,-30.268 l 1.115,-8.484 c 8.179,-20.489 3.972,-29.928 3.785,-30.328 l -0.328,-0.699 -0.763,-0.096 c -6.251,-0.827 -19.763,-3.5 -30.773,-8.281 -29.223,-12.693 -41.151,-40.108 -41.271,-40.38 l -0.312,-0.742 -0.798,-0.106 c -2.382,-0.315 -4.813,-0.475 -7.229,-0.475 -15.167,0 -27.898,6.109 -35.907,11.237 -4.175,2.673 -9.156,4.033 -14.806,4.033 -17.304,0 -35.41,-12.629 -35.596,-12.757 C 121.938,24.827 101.526,19.144 101.323,19.086 94.931,16.295 87.016,15.516 79.348,14.764 72.191,14.06 65.423,13.393 60.794,11.072 54.751,8.052 44.595,5.928 44.163,5.837 Z m -43.544,53.058 c 10.898,0 31.229,-6.526 45.505,-49.958 l 41.733,5.517 c 0,0 10.124,2.124 15.838,4.978 5.098,2.556 12.115,3.249 19.544,3.981 7.441,0.731 15.14,1.488 21.313,4.167 0.39,0.123 20.297,5.672 37.953,19.112 0.813,0.576 19.072,13.301 37.261,13.301 6.195,0 11.688,-1.504 16.324,-4.47 7.694,-4.925 19.905,-10.8 34.389,-10.8 2.032,0 4.076,0.123 6.087,0.358 2.191,4.61 14.916,29.18 42.397,41.121 10.813,4.69 23.955,7.401 30.664,8.361 0.704,2.417 2.393,11.279 -4.143,27.569 l -0.085,0.342 -1.193,9.001 0.021,0.176 c 2.084,17.421 -1.846,25.536 -3.156,27.697 -2.569,-0.304 -8.558,-0.907 -16.18,-0.907 -5.752,0 -11.002,0.347 -15.604,1.025 -29.634,4.391 -48.309,24.816 -51.62,28.705 -17.698,-2.614 -30.356,-13.99 -36.372,-20.595 -6.102,-6.696 -15.276,-10.095 -27.273,-10.095 -13.774,0 -26.198,4.498 -26.724,4.69 -20.614,8.419 -41.255,8.601 -41.457,8.601 -1.804,0.256 -3.493,0.373 -5.371,0.373 -5.312,0 -10.999,-0.944 -16.495,-1.857 -5.285,-0.88 -10.268,-1.707 -14.758,-1.707 -1.929,0 -3.618,0.155 -5.152,0.464 -2.657,0.539 -6.485,0.833 -11.076,0.833 -3.196,0 -5.595,-0.144 -5.611,-0.144 l -41.634,-5.501 c -1.341,-24.416 -7.237,-41.938 -17.543,-52.108 -8.812,-8.681 -17.92,-8.798 -19.369,-8.74 L -87.048,92.36 c -0.12,-0.005 -3.02,-0.139 -4.725,-2.161 -1.099,-1.307 -1.507,-3.17 -1.23,-5.555 0.547,-1.269 3.461,-8.217 4.36,-15.019 0.89,-6.798 -0.11,-14.263 -0.31,-15.629 0.585,-4.023 2.676,-6.056 6.211,-6.056 0.896,0 1.526,0.145 1.537,0.15 l 31.72,4.194 c 0.581,0.181 2.732,0.774 5.941,0.774" /></g><g
           transform="translate(165.9838,157.4375)"
           id="g136"><path
             id="path138"
             style="fill:#855b35;fill-opacity:1;fill-rule:nonzero;stroke:none"
             d="m 0,0 0.371,-2.796 10.74,1.419 -0.371,2.796 z" /></g><g
           transform="translate(165.9838,157.4375)"
           id="g140"><path
             id="path142"
             style="fill:none;stroke:#855b35;stroke-width:1.40999997;stroke-linecap:butt;stroke-linejoin:miter;stroke-miterlimit:10;stroke-dasharray:none;stroke-opacity:1"
             d="m 0,0 0.371,-2.796 10.74,1.419 -0.371,2.796 z" /></g><g
           transform="translate(161.243,193.3404)"
           id="g144"><path
             id="path146"
             style="fill:#855b35;fill-opacity:1;fill-rule:nonzero;stroke:none"
             d="M 0,0 0.371,-2.796 11.106,-1.382 10.74,1.414 Z" /></g><g
           transform="translate(161.243,193.3404)"
           id="g148"><path
             id="path150"
             style="fill:none;stroke:#855b35;stroke-width:1.40999997;stroke-linecap:butt;stroke-linejoin:miter;stroke-miterlimit:10;stroke-dasharray:none;stroke-opacity:1"
             d="M 0,0 0.371,-2.796 11.106,-1.382 10.74,1.414 Z" /></g><g
           transform="translate(249.5419,316.1823)"
           id="g152"><path
             id="path154"
             style="fill:#855b35;fill-opacity:1;fill-rule:nonzero;stroke:none"
             d="m 0,0 1.892,-6.557 2.71,0.779 -1.891,6.557 z" /></g><g
           transform="translate(249.5419,316.1823)"
           id="g156"><path
             id="path158"
             style="fill:none;stroke:#855b35;stroke-width:1.40999997;stroke-linecap:butt;stroke-linejoin:miter;stroke-miterlimit:10;stroke-dasharray:none;stroke-opacity:1"
             d="m 0,0 1.892,-6.557 2.71,0.779 -1.891,6.557 z" /></g><g
           transform="translate(220.7724,311.6578)"
           id="g160"><path
             id="path162"
             style="fill:#855b35;fill-opacity:1;fill-rule:nonzero;stroke:none"
             d="m 0,0 -0.184,1.462 c -0.035,0.272 -3.122,27.409 26.281,36.773 19.787,6.307 45.894,13.457 80.62,22.874 1.842,0.496 3.568,0.955 5.283,1.409 8.66,2.294 16.839,4.46 38.219,11.621 0.192,0.069 22.751,8.136 57.947,14.059 l 89.735,15.094 c 0.019,0.006 6.376,1.345 9.092,5.165 4.18,5.864 32.803,16.509 44.392,16.509 2.078,0 3.596,-0.321 4.639,-0.988 0.99,-0.635 1.934,-0.944 2.93,-1.275 0.835,-0.277 1.699,-0.56 2.617,-1.04 0.741,-0.39 2.342,-0.39 3.113,-0.39 l 1.716,0.011 c 1.869,0 5.338,0 6.12,-2.78 0.146,-0.518 0.021,-0.96 -0.171,-1.318 0.624,-0.352 1.384,-0.613 2.078,-0.843 1.331,-0.437 2.71,-0.896 3.151,-2.177 0.269,-0.763 0.115,-1.6 -0.465,-2.486 -1.027,-1.574 -2.737,-2.06 -3.988,-2.412 -0.438,-0.122 -1.355,-0.384 -1.441,-0.56 0,-0.006 -0.133,-0.315 0.299,-1.382 l 0.366,-0.907 -0.726,-0.661 c -3.06,-2.797 -7.929,-3.725 -12.221,-4.541 -1.635,-0.31 -3.18,-0.603 -4.53,-0.971 -1.198,-0.331 -2.345,-0.63 -3.457,-0.918 -4.92,-1.275 -9.159,-2.375 -13.633,-5.192 -4.186,-2.641 -5.72,-4.017 -6.283,-4.663 0.512,-0.096 1.457,-0.181 3.186,-0.181 0.725,0 1.496,0.01 2.289,0.021 0.856,0.016 1.736,0.032 2.606,0.032 3.287,0 9.402,0 10.058,-3.9 0.157,-0.913 -0.072,-1.825 -0.646,-2.636 -2.388,-3.345 -11.031,-5.005 -21.23,-6.686 l -2.329,-0.394 c -4.098,-0.689 -8.884,-0.187 -13.27,0.415 -4.498,0.615 -9.388,1.116 -13.529,0.326 -1.512,-0.288 -3.049,-0.56 -4.628,-0.837 -9.212,-1.649 -19.651,-3.511 -35.775,-9.743 -11.638,-4.503 -28.117,-9.514 -45.566,-14.817 -5.744,-1.75 -11.6,-3.533 -17.432,-5.342 L 154.239,38.822 C 154.149,38.79 128.906,31.486 108.612,24.966 93.371,20.073 69.302,14.561 45.58,10.533 l -0.459,-2.94 z m 351.385,122.149 c -11.287,0 -38.71,-10.581 -42.09,-15.33 -3.367,-4.733 -10.573,-6.237 -10.879,-6.301 l -89.785,-15.1 C 173.706,79.538 151.366,71.556 151.148,71.471 129.653,64.273 121.431,62.096 112.723,59.791 111.013,59.338 109.29,58.884 107.454,58.388 72.767,48.981 46.686,41.832 26.948,35.552 3.623,28.119 2.388,8.782 2.532,3.292 l 40.113,6.75 0.459,2.929 1.006,0.171 c 23.919,4.028 48.303,9.582 63.64,14.512 20.329,6.532 45.612,13.846 45.863,13.916 l 40.966,6.904 c 5.654,1.766 11.517,3.548 17.264,5.298 17.397,5.288 33.833,10.287 45.366,14.743 16.385,6.333 26.964,8.222 36.3,9.892 1.569,0.278 3.093,0.55 4.6,0.833 4.514,0.859 9.727,0.346 14.435,-0.299 4.384,-0.598 8.687,-1.057 12.419,-0.428 l 2.345,0.39 c 6.539,1.084 17.482,2.887 19.39,5.544 0.202,0.288 0.171,0.448 0.16,0.528 -0.123,0.705 -1.475,1.542 -7.278,1.542 -0.859,0 -1.724,-0.011 -2.558,-0.027 -4.192,-0.069 -7.878,-0.325 -8.561,2.044 -0.486,1.686 0.61,3.452 7.814,7.987 4.844,3.058 9.286,4.205 14.433,5.539 1.099,0.283 2.235,0.576 3.414,0.907 1.46,0.395 3.06,0.704 4.754,1.024 3.748,0.71 7.617,1.446 10.146,3.282 -0.224,0.827 -0.31,1.787 0.125,2.673 0.641,1.312 2.007,1.696 3.215,2.038 0.998,0.283 1.939,0.55 2.388,1.238 -0.323,0.144 -0.838,0.32 -1.214,0.448 -1.284,0.427 -2.878,0.955 -4.01,2.166 -0.339,0.363 -0.771,1.116 -0.016,2.231 -0.696,0.4 -2.396,0.4 -3.11,0.4 l -1.716,-0.011 c -1.481,0 -3.164,0.054 -4.415,0.704 -0.72,0.369 -1.441,0.614 -2.201,0.865 -1.07,0.352 -2.273,0.752 -3.562,1.579 -0.322,0.198 -1.152,0.545 -3.121,0.545" /></g><g
           transform="translate(220.7724,311.6578)"
           id="g164"><path
             id="path166"
             style="fill:none;stroke:#855b35;stroke-width:1.40999997;stroke-linecap:butt;stroke-linejoin:miter;stroke-miterlimit:10;stroke-dasharray:none;stroke-opacity:1"
             d="m 0,0 -0.184,1.462 c -0.035,0.272 -3.122,27.409 26.281,36.773 19.787,6.307 45.894,13.457 80.62,22.874 1.842,0.496 3.568,0.955 5.283,1.409 8.66,2.294 16.839,4.46 38.219,11.621 0.192,0.069 22.751,8.136 57.947,14.059 l 89.735,15.094 c 0.019,0.006 6.376,1.345 9.092,5.165 4.18,5.864 32.803,16.509 44.392,16.509 2.078,0 3.596,-0.321 4.639,-0.988 0.99,-0.635 1.934,-0.944 2.93,-1.275 0.835,-0.277 1.699,-0.56 2.617,-1.04 0.741,-0.39 2.342,-0.39 3.113,-0.39 l 1.716,0.011 c 1.869,0 5.338,0 6.12,-2.78 0.146,-0.518 0.021,-0.96 -0.171,-1.318 0.624,-0.352 1.384,-0.613 2.078,-0.843 1.331,-0.437 2.71,-0.896 3.151,-2.177 0.269,-0.763 0.115,-1.6 -0.465,-2.486 -1.027,-1.574 -2.737,-2.06 -3.988,-2.412 -0.438,-0.122 -1.355,-0.384 -1.441,-0.56 0,-0.006 -0.133,-0.315 0.299,-1.382 l 0.366,-0.907 -0.726,-0.661 c -3.06,-2.797 -7.929,-3.725 -12.221,-4.541 -1.635,-0.31 -3.18,-0.603 -4.53,-0.971 -1.198,-0.331 -2.345,-0.63 -3.457,-0.918 -4.92,-1.275 -9.159,-2.375 -13.633,-5.192 -4.186,-2.641 -5.72,-4.017 -6.283,-4.663 0.512,-0.096 1.457,-0.181 3.186,-0.181 0.725,0 1.496,0.01 2.289,0.021 0.856,0.016 1.736,0.032 2.606,0.032 3.287,0 9.402,0 10.058,-3.9 0.157,-0.913 -0.072,-1.825 -0.646,-2.636 -2.388,-3.345 -11.031,-5.005 -21.23,-6.686 l -2.329,-0.394 c -4.098,-0.689 -8.884,-0.187 -13.27,0.415 -4.498,0.615 -9.388,1.116 -13.529,0.326 -1.512,-0.288 -3.049,-0.56 -4.628,-0.837 -9.212,-1.649 -19.651,-3.511 -35.775,-9.743 -11.638,-4.503 -28.117,-9.514 -45.566,-14.817 -5.744,-1.75 -11.6,-3.533 -17.432,-5.342 L 154.239,38.822 C 154.149,38.79 128.906,31.486 108.612,24.966 93.371,20.073 69.302,14.561 45.58,10.533 l -0.459,-2.94 z m 351.385,122.149 c -11.287,0 -38.71,-10.581 -42.09,-15.33 -3.367,-4.733 -10.573,-6.237 -10.879,-6.301 l -89.785,-15.1 C 173.706,79.538 151.366,71.556 151.148,71.471 129.653,64.273 121.431,62.096 112.723,59.791 111.013,59.338 109.29,58.884 107.454,58.388 72.767,48.981 46.686,41.832 26.948,35.552 3.623,28.119 2.388,8.782 2.532,3.292 l 40.113,6.75 0.459,2.929 1.006,0.171 c 23.919,4.028 48.303,9.582 63.64,14.512 20.329,6.532 45.612,13.846 45.863,13.916 l 40.966,6.904 c 5.654,1.766 11.517,3.548 17.264,5.298 17.397,5.288 33.833,10.287 45.366,14.743 16.385,6.333 26.964,8.222 36.3,9.892 1.569,0.278 3.093,0.55 4.6,0.833 4.514,0.859 9.727,0.346 14.435,-0.299 4.384,-0.598 8.687,-1.057 12.419,-0.428 l 2.345,0.39 c 6.539,1.084 17.482,2.887 19.39,5.544 0.202,0.288 0.171,0.448 0.16,0.528 -0.123,0.705 -1.475,1.542 -7.278,1.542 -0.859,0 -1.724,-0.011 -2.558,-0.027 -4.192,-0.069 -7.878,-0.325 -8.561,2.044 -0.486,1.686 0.61,3.452 7.814,7.987 4.844,3.058 9.286,4.205 14.433,5.539 1.099,0.283 2.235,0.576 3.414,0.907 1.46,0.395 3.06,0.704 4.754,1.024 3.748,0.71 7.617,1.446 10.146,3.282 -0.224,0.827 -0.31,1.787 0.125,2.673 0.641,1.312 2.007,1.696 3.215,2.038 0.998,0.283 1.939,0.55 2.388,1.238 -0.323,0.144 -0.838,0.32 -1.214,0.448 -1.284,0.427 -2.878,0.955 -4.01,2.166 -0.339,0.363 -0.771,1.116 -0.016,2.231 -0.696,0.4 -2.396,0.4 -3.11,0.4 l -1.716,-0.011 c -1.481,0 -3.164,0.054 -4.415,0.704 -0.72,0.369 -1.441,0.614 -2.201,0.865 -1.07,0.352 -2.273,0.752 -3.562,1.579 -0.322,0.198 -1.152,0.545 -3.121,0.545" /></g><g
           transform="translate(244.1668,290.438)"
           id="g168"><path
             id="path170"
             style="fill:#855b35;fill-opacity:1;fill-rule:nonzero;stroke:#855b35;stroke-width:1.40999997;stroke-linecap:butt;stroke-linejoin:miter;stroke-miterlimit:10;stroke-dasharray:none;stroke-opacity:1"
             d="m 0,0 c -7.025,0 -12.189,4.157 -13.16,10.575 -1.417,9.396 8.045,10.832 12.597,11.52 2.209,0.342 3.946,0.496 5.463,0.496 5.926,0 9.186,-2.545 9.978,-7.779 C 15.988,7.464 10.999,1.462 2.75,0.214 1.824,0.075 0.902,0 0,0 m 4.9,19.769 c -1.37,0 -2.977,-0.15 -5.042,-0.459 C -8.43,18.056 -11.107,15.874 -10.37,10.997 -9.61,5.955 -5.632,2.823 0,2.823 c 0.76,0 1.542,0.064 2.329,0.176 5.583,0.848 10.775,4.7 9.764,11.397 -0.579,3.814 -2.668,5.373 -7.193,5.373" /></g><g
           transform="translate(232.8094,314.9339)"
           id="g172"><path
             id="path174"
             style="fill:#855b35;fill-opacity:1;fill-rule:nonzero;stroke:none"
             d="m 0,0 1.017,-6.739 2.79,0.422 -1.022,6.739 z" /></g><g
           transform="translate(232.8094,314.9339)"
           id="g176"><path
             id="path178"
             style="fill:none;stroke:#855b35;stroke-width:1.40999997;stroke-linecap:butt;stroke-linejoin:miter;stroke-miterlimit:10;stroke-dasharray:none;stroke-opacity:1"
             d="m 0,0 1.017,-6.739 2.79,0.422 -1.022,6.739 z" /></g><g
           transform="translate(754.8331,13.1732)"
           id="g180"><path
             id="path182"
             style="fill:#855b35;fill-opacity:1;fill-rule:nonzero;stroke:none"
             d="m 0,0 c -12.651,0 -37.248,5.421 -41.748,10.1 -3.263,3.394 -9.738,3.762 -9.802,3.767 -23.933,0.454 -90.932,1.739 -90.932,1.739 -35.685,0.678 -59.189,5.331 -59.418,5.384 -22.129,3.927 -30.53,4.866 -39.433,5.858 -1.779,0.198 -3.567,0.401 -5.484,0.625 -35.76,4.215 -62.651,7.449 -83.108,10.767 -30.453,4.936 -31.395,32.233 -31.4,32.51 l -0.032,1.473 45.747,-0.875 0.886,-2.845 c 24.061,-0.496 48.685,-2.4 64.47,-5.004 21.031,-3.458 47.071,-6.969 47.327,-7.006 l 41.218,-0.779 c 6.234,-0.949 12.298,-1.851 18.248,-2.737 18.026,-2.678 35.049,-5.208 47.212,-7.95 16.903,-3.794 27.51,-4.103 36.869,-4.37 1.585,-0.048 3.129,-0.09 4.655,-0.149 4.781,-0.203 9.113,1.083 13.337,2.316 3.988,1.157 8.112,2.358 12.554,2.358 l 2.852,-0.043 c 10.343,-0.165 19.139,-0.544 21.999,-3.5 0.693,-0.715 1.048,-1.585 1.027,-2.508 -0.077,-4.124 -6.39,-4.957 -11.954,-5.693 -1.761,-0.235 -4.269,-0.56 -5.4,-0.96 0.646,-0.555 2.366,-1.692 6.902,-3.687 4.844,-2.129 9.206,-2.588 14.254,-3.132 1.142,-0.117 2.315,-0.246 3.545,-0.395 1.398,-0.166 2.972,-0.235 4.634,-0.299 4.365,-0.176 9.311,-0.368 12.758,-2.689 l 0.813,-0.55 -0.229,-0.955 c -0.272,-1.109 -0.104,-1.403 -0.099,-1.408 0.115,-0.16 1.059,-0.283 1.513,-0.342 1.291,-0.165 3.054,-0.395 4.3,-1.798 0.699,-0.789 0.979,-1.595 0.827,-2.39 -0.253,-1.329 -1.547,-1.985 -2.798,-2.62 -0.662,-0.331 -1.377,-0.699 -1.94,-1.142 0.262,-0.341 0.438,-0.757 0.371,-1.28 C 24.165,6.878 20.771,6.408 18.034,6.024 16.564,5.816 14.892,5.581 14.177,5.063 13.336,4.455 12.528,4.044 11.746,3.655 10.804,3.174 9.916,2.726 9.03,1.953 7.523,0.64 4.567,0 0,0 m -358.396,69.342 c 0.605,-5.496 4.469,-24.352 28.919,-28.316 20.4,-3.309 47.265,-6.542 82.993,-10.752 1.902,-0.224 3.689,-0.416 5.463,-0.619 8.946,-1.003 17.397,-1.942 39.644,-5.896 0.264,-0.048 23.538,-4.663 58.948,-5.336 0,0 67.002,-1.28 90.983,-1.733 0.36,-0.017 7.702,-0.449 11.73,-4.637 3.375,-3.506 26.11,-9.23 39.716,-9.23 5.173,0 6.742,0.88 7.179,1.253 1.153,1.014 2.289,1.585 3.295,2.097 0.715,0.358 1.393,0.699 2.049,1.174 1.288,0.934 3.238,1.206 5.125,1.467 1.397,0.198 3.228,0.454 3.868,0.977 -0.902,1.04 -0.609,1.803 -0.328,2.203 0.939,1.366 2.441,2.124 3.649,2.738 0.349,0.176 0.835,0.421 1.131,0.618 -0.541,0.619 -1.515,0.737 -2.542,0.875 -1.246,0.155 -2.655,0.336 -3.484,1.542 -0.558,0.806 -0.614,1.772 -0.515,2.626 -2.769,1.44 -6.704,1.6 -10.517,1.755 -1.72,0.064 -3.35,0.133 -4.858,0.315 -1.214,0.149 -2.377,0.272 -3.508,0.395 -5.277,0.554 -9.839,1.046 -15.084,3.35 -7.813,3.436 -9.158,5.027 -8.91,6.766 0.315,2.225 3.446,2.641 8.166,3.265 3.311,0.438 9.476,1.249 9.508,2.951 0,0.117 -0.026,0.272 -0.235,0.491 -2.278,2.358 -13.381,2.529 -20.019,2.63 l -2.804,0.054 c -4.041,0 -7.795,-1.1 -11.768,-2.252 -4.436,-1.291 -9.038,-2.631 -14.232,-2.428 -1.513,0.059 -3.05,0.107 -4.623,0.155 -9.49,0.272 -20.244,0.576 -37.408,4.439 -12.064,2.716 -29.034,5.235 -47.01,7.908 -5.952,0.885 -12.026,1.787 -18.074,2.721 l -41.191,0.779 c -0.422,0.042 -26.505,3.564 -47.573,7.032 -15.884,2.615 -40.825,4.525 -65.089,4.984 l -1.016,0.021 -0.886,2.839 z" /></g><g
           transform="translate(754.8331,13.1732)"
           id="g184"><path
             id="path186"
             style="fill:none;stroke:#855b35;stroke-width:1.40999997;stroke-linecap:butt;stroke-linejoin:miter;stroke-miterlimit:10;stroke-dasharray:none;stroke-opacity:1"
             d="m 0,0 c -12.651,0 -37.248,5.421 -41.748,10.1 -3.263,3.394 -9.738,3.762 -9.802,3.767 -23.933,0.454 -90.932,1.739 -90.932,1.739 -35.685,0.678 -59.189,5.331 -59.418,5.384 -22.129,3.927 -30.53,4.866 -39.433,5.858 -1.779,0.198 -3.567,0.401 -5.484,0.625 -35.76,4.215 -62.651,7.449 -83.108,10.767 -30.453,4.936 -31.395,32.233 -31.4,32.51 l -0.032,1.473 45.747,-0.875 0.886,-2.845 c 24.061,-0.496 48.685,-2.4 64.47,-5.004 21.031,-3.458 47.071,-6.969 47.327,-7.006 l 41.218,-0.779 c 6.234,-0.949 12.298,-1.851 18.248,-2.737 18.026,-2.678 35.049,-5.208 47.212,-7.95 16.903,-3.794 27.51,-4.103 36.869,-4.37 1.585,-0.048 3.129,-0.09 4.655,-0.149 4.781,-0.203 9.113,1.083 13.337,2.316 3.988,1.157 8.112,2.358 12.554,2.358 l 2.852,-0.043 c 10.343,-0.165 19.139,-0.544 21.999,-3.5 0.693,-0.715 1.048,-1.585 1.027,-2.508 -0.077,-4.124 -6.39,-4.957 -11.954,-5.693 -1.761,-0.235 -4.269,-0.56 -5.4,-0.96 0.646,-0.555 2.366,-1.692 6.902,-3.687 4.844,-2.129 9.206,-2.588 14.254,-3.132 1.142,-0.117 2.315,-0.246 3.545,-0.395 1.398,-0.166 2.972,-0.235 4.634,-0.299 4.365,-0.176 9.311,-0.368 12.758,-2.689 l 0.813,-0.55 -0.229,-0.955 c -0.272,-1.109 -0.104,-1.403 -0.099,-1.408 0.115,-0.16 1.059,-0.283 1.513,-0.342 1.291,-0.165 3.054,-0.395 4.3,-1.798 0.699,-0.789 0.979,-1.595 0.827,-2.39 -0.253,-1.329 -1.547,-1.985 -2.798,-2.62 -0.662,-0.331 -1.377,-0.699 -1.94,-1.142 0.262,-0.341 0.438,-0.757 0.371,-1.28 C 24.165,6.878 20.771,6.408 18.034,6.024 16.564,5.816 14.892,5.581 14.177,5.063 13.336,4.455 12.528,4.044 11.746,3.655 10.804,3.174 9.916,2.726 9.03,1.953 7.523,0.64 4.567,0 0,0 m -358.396,69.342 c 0.605,-5.496 4.469,-24.352 28.919,-28.316 20.4,-3.309 47.265,-6.542 82.993,-10.752 1.902,-0.224 3.689,-0.416 5.463,-0.619 8.946,-1.003 17.397,-1.942 39.644,-5.896 0.264,-0.048 23.538,-4.663 58.948,-5.336 0,0 67.002,-1.28 90.983,-1.733 0.36,-0.017 7.702,-0.449 11.73,-4.637 3.375,-3.506 26.11,-9.23 39.716,-9.23 5.173,0 6.742,0.88 7.179,1.253 1.153,1.014 2.289,1.585 3.295,2.097 0.715,0.358 1.393,0.699 2.049,1.174 1.288,0.934 3.238,1.206 5.125,1.467 1.397,0.198 3.228,0.454 3.868,0.977 -0.902,1.04 -0.609,1.803 -0.328,2.203 0.939,1.366 2.441,2.124 3.649,2.738 0.349,0.176 0.835,0.421 1.131,0.618 -0.541,0.619 -1.515,0.737 -2.542,0.875 -1.246,0.155 -2.655,0.336 -3.484,1.542 -0.558,0.806 -0.614,1.772 -0.515,2.626 -2.769,1.44 -6.704,1.6 -10.517,1.755 -1.72,0.064 -3.35,0.133 -4.858,0.315 -1.214,0.149 -2.377,0.272 -3.508,0.395 -5.277,0.554 -9.839,1.046 -15.084,3.35 -7.813,3.436 -9.158,5.027 -8.91,6.766 0.315,2.225 3.446,2.641 8.166,3.265 3.311,0.438 9.476,1.249 9.508,2.951 0,0.117 -0.026,0.272 -0.235,0.491 -2.278,2.358 -13.381,2.529 -20.019,2.63 l -2.804,0.054 c -4.041,0 -7.795,-1.1 -11.768,-2.252 -4.436,-1.291 -9.038,-2.631 -14.232,-2.428 -1.513,0.059 -3.05,0.107 -4.623,0.155 -9.49,0.272 -20.244,0.576 -37.408,4.439 -12.064,2.716 -29.034,5.235 -47.01,7.908 -5.952,0.885 -12.026,1.787 -18.074,2.721 l -41.191,0.779 c -0.422,0.042 -26.505,3.564 -47.573,7.032 -15.884,2.615 -40.825,4.525 -65.089,4.984 l -1.016,0.021 -0.886,2.839 z" /></g><g
           transform="translate(416.3521,87.8823)"
           id="g188"><path
             id="path190"
             style="fill:#855b35;fill-opacity:1;fill-rule:nonzero;stroke:#855b35;stroke-width:1.40999997;stroke-linecap:butt;stroke-linejoin:miter;stroke-miterlimit:10;stroke-dasharray:none;stroke-opacity:1"
             d="m 0,0 v 0 h -0.163 c -3.222,0.01 -6.891,0.203 -9.655,1.574 -2.993,1.499 -4.513,4.183 -4.503,7.966 0.014,7.422 5.848,12.597 14.179,12.597 C 8.235,22.111 14.054,16.914 14.038,9.481 14.014,0 4.551,0 0,0 m -0.12,19.315 c -5.667,0 -11.365,-3.02 -11.381,-9.78 -0.005,-2.738 0.902,-4.413 2.94,-5.432 2.262,-1.126 5.677,-1.275 8.404,-1.28 L 0,1.409 v 1.414 c 8.268,0 11.202,1.744 11.218,6.664 0.016,6.771 -5.682,9.812 -11.338,9.828" /></g><g
           transform="translate(423.6538,83.1229)"
           id="g192"><path
             id="path194"
             style="fill:#855b35;fill-opacity:1;fill-rule:nonzero;stroke:none"
             d="M 0,0 2.825,-0.005 2.836,6.814 0.016,6.819 Z" /></g><g
           transform="translate(423.6538,83.1229)"
           id="g196"><path
             id="path198"
             style="fill:none;stroke:#855b35;stroke-width:1.40999997;stroke-linecap:butt;stroke-linejoin:miter;stroke-miterlimit:10;stroke-dasharray:none;stroke-opacity:1"
             d="M 0,0 2.825,-0.005 2.836,6.814 0.016,6.819 Z" /></g><g
           transform="translate(405.8597,83.9233)"
           id="g200"><path
             id="path202"
             style="fill:#855b35;fill-opacity:1;fill-rule:nonzero;stroke:none"
             d="M 0,0 2.817,-0.005 2.836,6.808 0.021,6.814 Z" /></g><g
           transform="translate(405.8597,83.9233)"
           id="g204"><path
             id="path206"
             style="fill:none;stroke:#855b35;stroke-width:1.40999997;stroke-linecap:butt;stroke-linejoin:miter;stroke-miterlimit:10;stroke-dasharray:none;stroke-opacity:1"
             d="M 0,0 2.817,-0.005 2.836,6.808 0.021,6.814 Z" /></g><g
           transform="translate(62.8172,214.139)"
           id="g208"><path
             id="path210"
             style="fill:#855b35;fill-opacity:1;fill-rule:nonzero;stroke:#855b35;stroke-width:1.40999997;stroke-linecap:butt;stroke-linejoin:miter;stroke-miterlimit:10;stroke-dasharray:none;stroke-opacity:1"
             d="m 0,0 c -36.378,0 -49.437,34.132 -49.563,34.478 l -2.246,6.691 c -0.125,0.406 -11.949,39.009 20.833,58.884 4.57,2.769 7.689,3.623 14.529,5.496 3.332,0.912 7.481,2.044 13.147,3.772 0.798,0.24 1.518,0.497 2.414,0.817 3.311,1.184 8.862,3.158 28.586,8.275 5.672,1.462 13.144,2.337 19.997,2.337 5.928,0 14.319,-0.661 20.714,-3.798 2.393,-0.641 27.771,-7.785 33.355,-24.454 l 2.222,-6.648 C 109.572,69.171 93.613,48.186 92.09,46.238 86.178,34.537 69.72,24 60.415,20.542 54.127,18.199 49.543,16.578 45.921,15.303 39.774,13.125 36.386,11.93 32.147,9.855 14.025,0.976 5.741,0.016 3.02,0.016 2.43,0.016 2.158,0.064 2.158,0.064 1.606,0.016 0.798,0 0,0 m 47.697,117.933 c -6.624,0 -13.84,-0.843 -19.293,-2.252 -19.598,-5.084 -25.072,-7.032 -28.346,-8.2 -0.939,-0.337 -1.699,-0.609 -2.539,-0.86 -5.699,-1.739 -9.874,-2.881 -13.222,-3.799 -6.579,-1.798 -9.58,-2.614 -13.808,-5.186 C -60.375,78.924 -49.595,43.544 -49.12,42.045 l 2.22,-6.627 C -46.791,35.13 -33.839,1.371 2.31,2.865 2.603,2.849 2.753,2.838 3.02,2.838 c 1.966,0 9.796,0.689 27.886,9.551 4.384,2.145 7.825,3.362 14.07,5.571 3.618,1.275 8.19,2.892 14.463,5.223 9.265,3.447 24.914,13.857 30.191,24.443 l 0.158,0.25 c 0.17,0.214 16.775,21.402 11.524,37.078 l -2.225,6.648 c -5.25,15.671 -31.269,22.585 -31.53,22.655 l -0.272,0.106 c -4.688,2.332 -11.464,3.57 -19.588,3.57" /></g></g></g></g></svg>