<?xml version="1.0" encoding="utf-8"?>
<!-- Generator: Adobe Illustrator 17.1.0, SVG Export Plug-In . SVG Version: 6.00 Build 0)  -->
<!DOCTYPE svg PUBLIC "-//W3C//DTD SVG 1.1//EN" "http://www.w3.org/Graphics/SVG/1.1/DTD/svg11.dtd">
<svg version="1.1" id="Layer_1" xmlns="http://www.w3.org/2000/svg" xmlns:xlink="http://www.w3.org/1999/xlink" x="0px" y="0px"
	 viewBox="0 0 350 163.2" enable-background="new 0 0 350 163.2" xml:space="preserve">
<g>
	<g>
		<g>
			<path fill="#6C6C68" d="M51.8,25.2v-5.7c9.3-0.6,11.7-8.9,12.5-17.2h5.7v17h12v6H70.2v26.9c0,1.8,1,3,3.5,3
				c2.8,0,3.9-1.6,3.9-5.2v-8.1h6v7.7c0,9.6-5.3,13.8-12.5,13.8c-6.8,0-11.7-2.8-11.7-10.1V25.2H51.8z"/>
			<path fill="#6C6C68" d="M138.8,46v2.7c0,10.2-4.1,14.5-11.8,14.5c-4.6,0-8.5-1.9-9.2-6.8c-3.4,5.1-9.2,6.8-15,6.8
				c-7.1,0-12.7-3.4-12.7-11.6c0-17.7,27.4-9.1,27.4-22c0-5.8-4.9-6.9-9.8-6.9c-2.6,0-6.8,0.8-8.5,3c3.4-0.5,6,1,6,4.7
				c0,4.1-2.8,5.4-6.4,5.4c-3.9,0-6.6-3-6.6-6.8c0-9.3,11.1-11.3,18.3-11.3c12.3,0,17.6,5.6,17.6,13.2v22.4c0,2,0.8,3,2.2,3
				c1.4,0,2.5-1.3,2.5-6.9V46H138.8z M117.6,39.4l-9.7,4.4c-2.6,1.2-5.5,2.6-5.5,6.9c0,3.8,1.7,5.7,5.5,5.7c6.2,0,9.7-5.3,9.7-11.1
				V39.4z"/>
			<path fill="#6C6C68" d="M149.2,45.2c0.9,4,2.7,7,5.4,8.9c2.6,2,6,3,10,3c3.2,0,7.1-1.7,7.1-5.5c0-8.9-28.7-3.8-28.7-20.2
				c0-9,8.7-13.7,16.7-13.7c4.8,0,9.5,1.8,13.4,4.5l1.8-3.1h5v15.2H174c-1.1-3.4-2.7-5.8-4.9-7.5c-2.2-1.7-5-2.6-8.6-2.6
				c-3,0-6.9,1.3-6.9,4.9c0,7.1,28.7,3.7,28.7,20.4c0,9.6-8.1,13.5-16.7,13.5c-5.5,0-10.9-0.9-15.2-4.7l-1.8,3.3h-6V45.2H149.2z"/>
		</g>
		<g>
			<path fill="#6C6C68" d="M203.5,26.4h0.2c3.7-4.9,8.6-8.6,15.5-8.6c7.9,0,12.7,5,12.7,12.8v21.6c0,2.6,1.1,3.7,3.6,3.7h5v6h-26.1
				v-6h3.4c2.5,0,3.6-1,3.6-3.7V31.3c0-4.7-3.1-6.4-7.9-6.4c-4.6,0-10,5-10,13v14.2c0,2.6,1.1,3.7,3.6,3.7h3.5v6h-26.3v-6h5.1
				c2.5,0,3.6-1,3.6-3.7V11.1c0-2.6-1.1-3.6-3.6-3.6h-5.1v-6h19.2V26.4z"/>
		</g>
		<g>
			<path fill="#6C6C68" d="M291.6,46v2.7c0,10.2-4.1,14.5-11.8,14.5c-4.6,0-8.5-1.9-9.2-6.8c-3.4,5.1-9.2,6.8-15,6.8
				c-7.1,0-12.7-3.4-12.7-11.6c0-17.7,27.4-9.1,27.4-22c0-5.8-4.9-6.9-9.8-6.9c-2.6,0-6.8,0.8-8.5,3c3.4-0.5,6,1,6,4.7
				c0,4.1-2.8,5.4-6.4,5.4c-3.9,0-6.6-3-6.6-6.8c0-9.3,11.1-11.3,18.3-11.3c12.3,0,17.6,5.6,17.6,13.2v22.4c0,2,0.8,3,2.2,3
				c1.4,0,2.5-1.3,2.5-6.9V46H291.6z M270.3,39.4l-9.7,4.4c-2.6,1.2-5.5,2.6-5.5,6.9c0,3.8,1.7,5.7,5.5,5.7c6.2,0,9.7-5.3,9.7-11.1
				V39.4z"/>
		</g>
	</g>
	<g>
		<path fill="#6C6C68" d="M34.4,134.9h-0.2c-3.6,6.2-8.3,8.9-14.3,8.9c-12.7,0-18.1-11.5-18.1-22.7s6.7-22.7,18.1-22.7
			c7.2,0,12.2,4.5,14.3,7.8h0.2V92c0-2.7-0.9-4-3.7-4h-5.7v-6h20.3v50.5c0,2.7,0.8,4,3.6,4h4.7v6H34.4V134.9z M23.5,136.7
			c6.1,0,10.9-5.1,10.9-16.1c0-9.9-4.8-15.1-10.9-15.1c-6.1,0-9.4,5.1-9.4,15.6S17.4,136.7,23.5,136.7z"/>
		<path fill="#6C6C68" d="M55.4,142.4v-6h4.2c2.6,0,3.6-1,3.6-3.7v-23.4c0-2.6-1.1-3.7-3.6-3.7h-4.2v-6H74v33c0,2.6,1.1,3.7,3.7,3.7
			h4.5v6H55.4z M67.4,80.8c3.6,0,6.6,2.9,6.6,6.6c0,3.7-3,6.6-6.6,6.6c-3.6,0-6.6-2.9-6.6-6.6C60.9,83.8,63.9,80.8,67.4,80.8z"/>
		<path fill="#6C6C68" d="M99.1,105.4h0.2c2.7-3.9,7.1-7,12.1-7c13.3,0,18.6,11,18.6,21.6c0,15.1-6.4,23.8-19,23.8
			c-5.5,0-9.3-1.4-13.6-6.3l-3.4,4.9h-5.7V91.6c0-2.6-1.1-3.6-3.6-3.6h-3.6v-6h18V105.4z M108.4,105.5c-6.1,0-9.4,5.1-9.4,15.6
			c0,11.1,2,15.6,9.4,15.6c6.1,0,9.4-5.1,9.4-15.6C117.8,110,115.8,105.5,108.4,105.5z"/>
		<path fill="#6C6C68" d="M133.8,142.4v-6h4.2c2.6,0,3.6-1,3.6-3.7v-23.4c0-2.6-1.1-3.7-3.6-3.7h-4.2v-6h18.6v33
			c0,2.6,1.1,3.7,3.7,3.7h4.5v6H133.8z M145.9,80.8c3.6,0,6.6,2.9,6.6,6.6c0,3.7-3,6.6-6.6,6.6c-3.6,0-6.6-2.9-6.6-6.6
			C139.3,83.8,142.3,80.8,145.9,80.8z"/>
		<path fill="#6C6C68" d="M212.5,126.6v2.7c0,10.2-4.1,14.5-11.8,14.5c-4.6,0-8.5-1.9-9.2-6.8c-3.4,5.1-9.2,6.8-15,6.8
			c-7.1,0-12.7-3.4-12.7-11.6c0-17.7,27.4-9.1,27.4-22c0-5.8-4.9-6.9-9.8-6.9c-2.6,0-6.8,0.8-8.5,3c3.4-0.5,6,1,6,4.7
			c0,4.1-2.8,5.4-6.4,5.4c-3.9,0-6.6-3-6.6-6.8c0-9.3,11.1-11.3,18.3-11.3c12.3,0,17.6,5.6,17.6,13.2v22.4c0,2,0.8,3,2.2,3
			c1.4,0,2.5-1.3,2.5-6.9v-3.5H212.5z M191.3,119.9l-9.7,4.4c-2.6,1.2-5.5,2.6-5.5,6.9c0,3.8,1.7,5.7,5.5,5.7
			c6.2,0,9.7-5.3,9.7-11.1V119.9z"/>
		<path fill="#6C6C68" d="M247.4,135.7c9.9,0,15,4.2,15,12c0,6-3.3,14.1-25.6,14.1c-18.8,0-23.4-4.7-23.4-10.1c0-5.1,4.7-7,9.1-7.5
			V144c-4.9-0.9-7.7-2.7-7.7-8.3c0-4.8,3.7-8.4,8.4-8.7v-0.2c-4.9-2.5-6.8-6.8-6.8-12.3c0-11.1,9.9-16.1,19.9-16.1
			c6,0,12,1.8,15.5,4.5c2.4-3.1,5.7-4.5,9.5-4.5c5.3,0,9.2,3.7,9.2,8.9c0,3.8-1.8,6.5-5.8,6.5c-3,0-5.6-1.6-5.6-4.8
			c0-2.8,1.5-4.7,4.2-5.3c0.2-0.4-0.5-1.4-3.1-1.4c-2.6,0-4.7,2-6.1,4c1.6,3,2.6,5.2,2.6,8.2c0,11.7-10,16-20.3,16
			c-3.1,0-6.4-0.4-9.7-1.5c-1.4,0.8-2.5,1.8-2.5,3.5c0,1.6,1.5,3.3,7.8,3.3H247.4z M232.1,144.9c-6.3,0-9.6,2.5-9.6,6.1
			c0,3.3,3.6,5.7,13.9,5.7c9.9,0,15.3-1.9,15.3-6.5c0-3-2.4-5.3-5.7-5.3H232.1z M236.3,125.4c5.3,0,7.9-3.7,7.9-10.5
			c0-7.8-2.6-11.4-7.9-11.4c-5.2,0-7.8,3.7-7.8,11C228.5,121.7,231.1,125.4,236.3,125.4z"/>
		<path fill="#6C6C68" d="M272.3,142.4v-6h4.2c2.6,0,3.7-1,3.7-3.7v-23.4c0-2.6-1.1-3.7-3.7-3.7h-4.2v-6h18.6v33
			c0,2.6,1.1,3.7,3.7,3.7h4.5v6H272.3z M284.3,80.8c3.6,0,6.6,2.9,6.6,6.6c0,3.7-3,6.6-6.6,6.6c-3.6,0-6.6-2.9-6.6-6.6
			C277.7,83.8,280.7,80.8,284.3,80.8z"/>
		<path fill="#6C6C68" d="M324.7,98.4c13.7,0,23.4,8.2,23.4,22.7s-9.8,22.7-23.4,22.7c-13.7,0-23.4-8.2-23.4-22.7
			S311,98.4,324.7,98.4z M324.7,137.8c7.4,0,11.2-5.8,11.2-16.7c0-10.9-3.8-16.7-11.2-16.7s-11.2,5.8-11.2,16.7
			C313.5,132,317.3,137.8,324.7,137.8z"/>
	</g>
</g>
</svg>
