<?xml version="1.0" encoding="utf-8"?>
<!-- Generator: Adobe Illustrator 17.1.0, SVG Export Plug-In . SVG Version: 6.00 Build 0)  -->
<!DOCTYPE svg PUBLIC "-//W3C//DTD SVG 1.1//EN" "http://www.w3.org/Graphics/SVG/1.1/DTD/svg11.dtd">
<svg version="1.1" id="Layer_1" xmlns="http://www.w3.org/2000/svg" xmlns:xlink="http://www.w3.org/1999/xlink" x="0px" y="0px"
	 viewBox="0 0 212.4 99" enable-background="new 0 0 212.4 99" xml:space="preserve">
<g>
	<g>
		<g>
			<path fill="#6C6C68" d="M31.9,15.5V12c5.6-0.4,7-5.3,7.5-10.4h3.4v10.2h7.3v3.6H43v16.2c0,1.1,0.6,1.8,2.1,1.8
				c1.7,0,2.4-0.9,2.4-3.1v-4.9h3.6v4.6c0,5.8-3.2,8.3-7.5,8.3c-4.1,0-7-1.7-7-6.1V15.5H31.9z"/>
			<path fill="#6C6C68" d="M84.4,28.1v1.6c0,6.2-2.5,8.8-7.1,8.8c-2.8,0-5.1-1.2-5.6-4.1c-2,3.1-5.6,4.1-9,4.1c-4.3,0-7.7-2-7.7-7
				c0-10.7,16.5-5.5,16.5-13.3c0-3.5-3-4.2-5.9-4.2c-1.5,0-4.1,0.5-5.1,1.8c2-0.3,3.6,0.6,3.6,2.9c0,2.5-1.7,3.2-3.9,3.2
				c-2.4,0-4-1.8-4-4.1c0-5.6,6.7-6.8,11.1-6.8c7.4,0,10.6,3.4,10.6,8v13.5c0,1.2,0.5,1.8,1.3,1.8c0.8,0,1.5-0.8,1.5-4.2v-2.1H84.4z
				 M71.5,24l-5.8,2.6c-1.6,0.7-3.3,1.6-3.3,4.2c0,2.3,1,3.5,3.3,3.5c3.7,0,5.8-3.2,5.8-6.7V24z"/>
			<path fill="#6C6C68" d="M90.6,27.6c0.6,2.4,1.7,4.2,3.2,5.4c1.6,1.2,3.6,1.8,6.1,1.8c1.9,0,4.3-1,4.3-3.3
				c0-5.4-17.3-2.3-17.3-12.2c0-5.4,5.2-8.3,10.1-8.3c2.9,0,5.7,1.1,8.1,2.7l1.1-1.9h3v9.2h-3.6c-0.7-2-1.7-3.5-3-4.5
				c-1.3-1-3-1.5-5.2-1.5c-1.8,0-4.2,0.8-4.2,3c0,4.3,17.3,2.3,17.3,12.3c0,5.8-4.9,8.1-10.1,8.1c-3.3,0-6.6-0.6-9.2-2.8l-1.1,2
				h-3.6V27.6H90.6z"/>
		</g>
		<g>
			<path fill="#6C6C68" d="M123.4,16.2h0.1c2.2-3,5.2-5.2,9.4-5.2c4.7,0,7.7,3,7.7,7.7v13c0,1.6,0.6,2.2,2.2,2.2h3v3.6H130V34h2
				c1.5,0,2.2-0.6,2.2-2.2V19.2c0-2.8-1.9-3.9-4.7-3.9c-2.8,0-6,3-6,7.9v8.6c0,1.6,0.6,2.2,2.2,2.2h2.1v3.6h-15.9V34h3.1
				c1.5,0,2.2-0.6,2.2-2.2V7c0-1.6-0.6-2.2-2.2-2.2h-3.1V1.1h11.6V16.2z"/>
		</g>
		<g>
			<path fill="#6C6C68" d="M176.6,28.1v1.6c0,6.2-2.5,8.8-7.1,8.8c-2.8,0-5.1-1.2-5.6-4.1c-2,3.1-5.6,4.1-9,4.1c-4.3,0-7.7-2-7.7-7
				c0-10.7,16.5-5.5,16.5-13.3c0-3.5-3-4.2-5.9-4.2c-1.5,0-4.1,0.5-5.1,1.8c2-0.3,3.6,0.6,3.6,2.9c0,2.5-1.7,3.2-3.9,3.2
				c-2.4,0-4-1.8-4-4.1c0-5.6,6.7-6.8,11.1-6.8c7.4,0,10.6,3.4,10.6,8v13.5c0,1.2,0.5,1.8,1.3,1.8s1.5-0.8,1.5-4.2v-2.1H176.6z
				 M163.7,24l-5.8,2.6c-1.6,0.7-3.3,1.6-3.3,4.2c0,2.3,1,3.5,3.3,3.5c3.7,0,5.8-3.2,5.8-6.7V24z"/>
		</g>
	</g>
	<g>
		<path fill="#6C6C68" d="M21.4,81.7h-0.1c-2.2,3.7-5,5.3-8.6,5.3C5,87.1,1.7,80.1,1.7,73.3s4-13.7,10.9-13.7c4.3,0,7.4,2.7,8.6,4.7
			h0.1v-8.6c0-1.7-0.6-2.4-2.3-2.4h-3.5v-3.6h12.2v30.4c0,1.6,0.5,2.4,2.2,2.4h2.9v3.6H21.4V81.7z M14.8,82.8c3.7,0,6.6-3.1,6.6-9.7
			c0-6-2.9-9.1-6.6-9.1c-3.7,0-5.7,3.1-5.7,9.4S11.1,82.8,14.8,82.8z"/>
		<path fill="#6C6C68" d="M34,86.2v-3.6h2.5c1.5,0,2.2-0.6,2.2-2.2V66.3c0-1.6-0.7-2.2-2.2-2.2H34v-3.6h11.2v19.9
			c0,1.6,0.7,2.2,2.2,2.2h2.7v3.6H34z M41.3,49.1c2.1,0,4,1.8,4,4c0,2.2-1.8,4-4,4c-2.1,0-4-1.8-4-4C37.3,50.8,39.1,49.1,41.3,49.1z
			"/>
		<path fill="#6C6C68" d="M60.4,63.9h0.1c1.7-2.4,4.3-4.2,7.3-4.2c8,0,11.2,6.7,11.2,13c0,9.1-3.9,14.4-11.5,14.4
			c-3.3,0-5.6-0.8-8.2-3.8l-2,3h-3.5V55.6c0-1.6-0.7-2.2-2.2-2.2h-2.1v-3.6h10.8V63.9z M66,63.9c-3.7,0-5.7,3.1-5.7,9.4
			c0,6.7,1.2,9.4,5.7,9.4c3.7,0,5.7-3.1,5.7-9.4C71.7,66.6,70.5,63.9,66,63.9z"/>
		<path fill="#6C6C68" d="M81.4,86.2v-3.6h2.5c1.5,0,2.2-0.6,2.2-2.2V66.3c0-1.6-0.7-2.2-2.2-2.2h-2.5v-3.6h11.2v19.9
			c0,1.6,0.7,2.2,2.2,2.2h2.7v3.6H81.4z M88.6,49.1c2.1,0,4,1.8,4,4c0,2.2-1.8,4-4,4c-2.1,0-4-1.8-4-4
			C84.7,50.8,86.5,49.1,88.6,49.1z"/>
		<path fill="#6C6C68" d="M128.9,76.7v1.6c0,6.2-2.5,8.8-7.1,8.8c-2.8,0-5.1-1.2-5.6-4.1c-2,3.1-5.6,4.1-9,4.1c-4.3,0-7.7-2-7.7-7
			c0-10.7,16.5-5.5,16.5-13.3c0-3.5-3-4.2-5.9-4.2c-1.5,0-4.1,0.5-5.1,1.8c2-0.3,3.6,0.6,3.6,2.9c0,2.5-1.7,3.2-3.9,3.2
			c-2.4,0-4-1.8-4-4.1c0-5.6,6.7-6.8,11.1-6.8c7.4,0,10.6,3.4,10.6,8v13.5c0,1.2,0.5,1.8,1.3,1.8c0.8,0,1.5-0.8,1.5-4.2v-2.1H128.9z
			 M116,72.6l-5.8,2.6c-1.6,0.7-3.3,1.6-3.3,4.2c0,2.3,1,3.5,3.3,3.5c3.7,0,5.8-3.2,5.8-6.7V72.6z"/>
		<path fill="#6C6C68" d="M149.9,82.2c6,0,9,2.5,9,7.3c0,3.6-2,8.5-15.5,8.5c-11.3,0-14.1-2.9-14.1-6.1c0-3.1,2.9-4.2,5.5-4.5v-0.1
			c-3-0.6-4.6-1.7-4.6-5c0-2.9,2.2-5.1,5.1-5.2v-0.1c-3-1.5-4.1-4.1-4.1-7.4c0-6.7,5.9-9.7,12-9.7c3.6,0,7.3,1.1,9.4,2.7
			c1.4-1.9,3.4-2.7,5.7-2.7c3.2,0,5.6,2.3,5.6,5.4c0,2.3-1.1,3.9-3.5,3.9c-1.8,0-3.4-0.9-3.4-2.9c0-1.7,0.9-2.8,2.5-3.2
			c0.1-0.2-0.3-0.8-1.9-0.8c-1.5,0-2.9,1.2-3.7,2.4c1,1.8,1.5,3.1,1.5,5c0,7-6.1,9.6-12.3,9.6c-1.9,0-3.9-0.2-5.8-0.9
			c-0.8,0.5-1.5,1.1-1.5,2.1c0,1,0.9,2,4.7,2H149.9z M140.7,87.7c-3.8,0-5.8,1.5-5.8,3.7c0,2,2.1,3.4,8.4,3.4c6,0,9.2-1.2,9.2-3.9
			c0-1.8-1.4-3.2-3.5-3.2H140.7z M143.2,75.9c3.2,0,4.8-2.2,4.8-6.3c0-4.7-1.6-6.9-4.8-6.9c-3.1,0-4.7,2.2-4.7,6.6
			C138.5,73.7,140.1,75.9,143.2,75.9z"/>
		<path fill="#6C6C68" d="M164.9,86.2v-3.6h2.5c1.5,0,2.2-0.6,2.2-2.2V66.3c0-1.6-0.7-2.2-2.2-2.2h-2.5v-3.6h11.2v19.9
			c0,1.6,0.7,2.2,2.2,2.2h2.7v3.6H164.9z M172.2,49.1c2.1,0,4,1.8,4,4c0,2.2-1.8,4-4,4c-2.1,0-4-1.8-4-4
			C168.2,50.8,170,49.1,172.2,49.1z"/>
		<path fill="#6C6C68" d="M196.6,59.6c8.3,0,14.1,5,14.1,13.7s-5.9,13.7-14.1,13.7c-8.3,0-14.1-5-14.1-13.7S188.3,59.6,196.6,59.6z
			 M196.6,83.4c4.5,0,6.8-3.5,6.8-10.1s-2.3-10.1-6.8-10.1c-4.5,0-6.8,3.5-6.8,10.1S192.1,83.4,196.6,83.4z"/>
	</g>
</g>
</svg>
